<svg width="58" height="58" viewBox="0 0 58 58" fill="none" xmlns="http://www.w3.org/2000/svg">
<path d="M35.2657 25.6904C33.6411 25.6713 32.3287 24.3589 32.3096 22.7343L32.0778 3.03293C32.0463 0.351013 35.2878 -1.01407 37.1843 0.882466L57.1175 20.8156C59.014 22.7122 57.6489 25.9537 54.967 25.9222L35.2657 25.6904Z" fill="#FD2B2B"/>
<path d="M25.6904 35.2657C25.6713 33.6411 24.3589 32.3288 22.7343 32.3096L3.03296 32.0779C0.351039 32.0463 -1.01404 35.2879 0.882492 37.1844L20.8156 57.1175C22.7122 59.0141 25.9537 57.649 25.9222 54.9671L25.6904 35.2657Z" fill="#FF7F09"/>
<path d="M22.7343 25.6904C24.3589 25.6712 25.6712 24.3589 25.6903 22.7343L25.9221 3.03292C25.9537 0.350997 22.7121 -1.01408 20.8156 0.882451L0.88245 20.8156C-1.01408 22.7121 0.350998 25.9537 3.03292 25.9221L22.7343 25.6904Z" fill="#095CFF"/>
<path d="M32.3097 35.2657C32.3288 33.6411 33.6411 32.3288 35.2657 32.3096L54.9671 32.0779C57.649 32.0463 59.0141 35.2879 57.1175 37.1844L37.1844 57.1175C35.2879 59.0141 32.0463 57.649 32.0779 54.9671L32.3097 35.2657Z" fill="#47A850"/>
<path d="M36.3245 29.4987C36.3245 33.629 32.9762 36.9773 28.8458 36.9773C24.7155 36.9773 21.3672 33.629 21.3672 29.4987C21.3672 25.3683 24.7155 22.02 28.8458 22.02C32.9762 22.02 36.3245 25.3683 36.3245 29.4987Z" fill="#0C41FF"/>
<path fill-rule="evenodd" clip-rule="evenodd" d="M40.3114 29.4987C40.3114 35.8319 35.1774 40.966 28.8442 40.966C22.511 40.966 17.377 35.8319 17.377 29.4987C17.377 23.1656 22.511 18.0315 28.8442 18.0315C35.1774 18.0315 40.3114 23.1656 40.3114 29.4987ZM28.8442 36.9774C32.9745 36.9774 36.3228 33.6291 36.3228 29.4987C36.3228 25.3684 32.9745 22.0201 28.8442 22.0201C24.7139 22.0201 21.3656 25.3684 21.3656 29.4987C21.3656 33.6291 24.7139 36.9774 28.8442 36.9774Z" fill="white"/>
</svg>
