<svg width="147" height="70" viewBox="0 0 147 70" fill="none" xmlns="http://www.w3.org/2000/svg">
<g opacity="0.5">
<rect x="78.189" y="8" width="54" height="54" rx="3" fill="#E7EAED"/>
</g>
<g opacity="0.3">
<rect x="92.7837" y="8" width="54" height="54" rx="3" fill="#E7EAED"/>
</g>
<rect x="62.1353" y="8" width="54" height="54" rx="3" fill="#E6E7E8"/>
<g filter="url(#filter0_d_356_229936)">
<rect x="49" y="8" width="54" height="54" rx="3" fill="#EDAE0E" shape-rendering="crispEdges"/>
<path d="M76.0002 18.333C71.5973 18.3892 67.3907 20.1631 64.2771 23.2766C61.1636 26.3902 59.3896 30.5969 59.3335 34.9997C59.3541 37.5645 59.9664 40.09 61.1227 42.3795C62.279 44.6691 63.9481 46.6608 66.0002 48.1997V48.333H66.1668C68.9888 50.4955 72.4449 51.6674 76.0002 51.6674C79.5554 51.6674 83.0115 50.4955 85.8335 48.333H86.0002V48.1997C88.0522 46.6608 89.7213 44.6691 90.8776 42.3795C92.034 40.09 92.6462 37.5645 92.6668 34.9997C92.6107 30.5969 90.8367 26.3902 87.7232 23.2766C84.6097 20.1631 80.403 18.3892 76.0002 18.333ZM69.4502 46.5497C69.6935 45.4354 70.3104 44.4378 71.1986 43.7224C72.0869 43.007 73.193 42.6167 74.3335 42.6163H77.6668C78.8073 42.6167 79.9135 43.007 80.8017 43.7224C81.6899 44.4378 82.3069 45.4354 82.5502 46.5497C80.5649 47.7177 78.3035 48.3336 76.0002 48.3336C73.6968 48.3336 71.4354 47.7177 69.4502 46.5497ZM85.3502 44.3997C84.7162 42.8846 83.6487 41.5906 82.2817 40.6803C80.9147 39.7699 79.3092 39.2838 77.6668 39.283H74.3335C72.6911 39.2838 71.0856 39.7699 69.7186 40.6803C68.3516 41.5906 67.2841 42.8846 66.6502 44.3997C65.4013 43.1713 64.4067 41.7089 63.7232 40.096C63.0397 38.4831 62.6807 36.7514 62.6668 34.9997C62.7101 31.4769 64.1287 28.1106 66.6199 25.6194C69.111 23.1282 72.4774 21.7096 76.0002 21.6663C79.523 21.7096 82.8893 23.1282 85.3805 25.6194C87.8716 28.1106 89.2903 31.4769 89.3335 34.9997C89.3196 36.7514 88.9606 38.4831 88.2771 40.096C87.5937 41.7089 86.5991 43.1713 85.3502 44.3997Z" fill="#FBEFCF"/>
<path d="M76 24.9998C75.1189 24.9793 74.2428 25.1377 73.4247 25.4655C72.6066 25.7932 71.8634 26.2835 71.2402 26.9067C70.617 27.5299 70.1267 28.2731 69.799 29.0912C69.4712 29.9093 69.3128 30.7854 69.3333 31.6665C69.3128 32.5476 69.4712 33.4237 69.799 34.2418C70.1267 35.0599 70.617 35.803 71.2402 36.4262C71.8634 37.0494 72.6066 37.5397 73.4247 37.8675C74.2428 38.1953 75.1189 38.3537 76 38.3331C76.8811 38.3537 77.7572 38.1953 78.5753 37.8675C79.3934 37.5397 80.1365 37.0494 80.7597 36.4262C81.3829 35.803 81.8732 35.0599 82.201 34.2418C82.5288 33.4237 82.6872 32.5476 82.6666 31.6665C82.6872 30.7854 82.5288 29.9093 82.201 29.0912C81.8732 28.2731 81.3829 27.5299 80.7597 26.9067C80.1365 26.2835 79.3934 25.7932 78.5753 25.4655C77.7572 25.1377 76.8811 24.9793 76 24.9998ZM76 34.9998C75.5566 35.0212 75.1136 34.9497 74.6994 34.7898C74.2853 34.6298 73.9092 34.3851 73.5953 34.0712C73.2814 33.7572 73.0366 33.3811 72.8767 32.967C72.7168 32.5529 72.6452 32.1099 72.6666 31.6665C72.6452 31.2231 72.7168 30.7801 72.8767 30.3659C73.0366 29.9518 73.2814 29.5757 73.5953 29.2618C73.9092 28.9479 74.2853 28.7031 74.6994 28.5432C75.1136 28.3833 75.5566 28.3117 76 28.3331C76.4434 28.3117 76.8864 28.3833 77.3005 28.5432C77.7146 28.7031 78.0907 28.9479 78.4046 29.2618C78.7186 29.5757 78.9633 29.9518 79.1233 30.3659C79.2832 30.7801 79.3547 31.2231 79.3333 31.6665C79.3547 32.1099 79.2832 32.5529 79.1233 32.967C78.9633 33.3811 78.7186 33.7572 78.4046 34.0712C78.0907 34.3851 77.7146 34.6298 77.3005 34.7898C76.8864 34.9497 76.4434 35.0212 76 34.9998Z" fill="#FBEFCF"/>
</g>
<defs>
<filter id="filter0_d_356_229936" x="45" y="8" width="62" height="62" filterUnits="userSpaceOnUse" color-interpolation-filters="sRGB">
<feFlood flood-opacity="0" result="BackgroundImageFix"/>
<feColorMatrix in="SourceAlpha" type="matrix" values="0 0 0 0 0 0 0 0 0 0 0 0 0 0 0 0 0 0 127 0" result="hardAlpha"/>
<feOffset dy="4"/>
<feGaussianBlur stdDeviation="2"/>
<feComposite in2="hardAlpha" operator="out"/>
<feColorMatrix type="matrix" values="0 0 0 0 0 0 0 0 0 0 0 0 0 0 0 0 0 0 0.1 0"/>
<feBlend mode="normal" in2="BackgroundImageFix" result="effect1_dropShadow_356_229936"/>
<feBlend mode="normal" in="SourceGraphic" in2="effect1_dropShadow_356_229936" result="shape"/>
</filter>
</defs>
</svg>
