<svg width="192" height="157" viewBox="0 0 192 157" fill="none" xmlns="http://www.w3.org/2000/svg">
<g clip-path="url(#clip0_338_223026)">
<path d="M228.546 52.1989L38.9429 1.28329C37.097 0.78759 35.1996 1.88546 34.705 3.73545L10.28 95.0911C9.78541 96.9411 10.8809 98.8426 12.7268 99.3383L202.33 150.254C204.176 150.75 206.073 149.652 206.568 147.802L230.993 56.4462C231.487 54.5962 230.392 52.6946 228.546 52.1989Z" fill="white"/>
<path d="M43.2199 24.952L41.8198 24.576L43.596 17.9326L41.3535 17.3304L41.6701 16.1465L47.5551 17.7268L47.2385 18.9108L44.9961 18.3086L43.2199 24.952ZM47.0157 19.6029L48.5143 20.0053L48.7988 23.6772C48.8223 23.9107 48.8323 24.1366 48.8286 24.3549C48.825 24.5733 48.8057 24.7913 48.7709 25.0092L48.8147 25.0209C48.8927 24.846 48.9902 24.6568 49.1072 24.4532C49.2241 24.2496 49.3474 24.0517 49.477 23.8593L51.5115 20.8102L52.9991 21.2097L48.6727 27.2622C48.2883 27.7935 47.8573 28.1634 47.3795 28.3719C46.907 28.5897 46.3864 28.6222 45.8176 28.4695C45.6353 28.4205 45.4814 28.3675 45.356 28.3103C45.2286 28.2604 45.1168 28.2108 45.0206 28.1615L45.3137 27.0652C45.39 27.1014 45.4809 27.1415 45.5864 27.1854C45.6992 27.2314 45.8175 27.271 45.9415 27.3043C46.2842 27.3963 46.5814 27.3665 46.833 27.2147C47.0899 27.0722 47.3132 26.8658 47.5027 26.5956L47.8067 26.1602L47.0157 19.6029ZM57.0307 22.1748C57.7234 22.3608 58.2119 22.7701 58.4962 23.4026C58.7823 24.0278 58.7896 24.8483 58.518 25.8642C58.2464 26.8801 57.8215 27.5924 57.2432 28.0011C56.6742 28.4044 56.0433 28.513 55.3506 28.327C54.913 28.2095 54.5809 28.0342 54.354 27.8009C54.1272 27.5677 53.9619 27.3236 53.8582 27.0685L53.7706 27.045C53.7554 27.1898 53.7326 27.3481 53.7022 27.5202C53.6811 27.6868 53.652 27.8396 53.6149 27.9784L52.9701 30.3902L51.5917 30.02L53.8838 21.4473L54.9995 21.7469L54.9854 22.5891L55.0511 22.6067C55.2779 22.4013 55.5534 22.2481 55.8774 22.1471C56.2014 22.0462 56.5858 22.0554 57.0307 22.1748ZM56.3379 23.1873C55.8493 23.0561 55.4638 23.1092 55.1815 23.3467C54.9064 23.5862 54.6861 24.0009 54.5205 24.5909L54.4736 24.7664C54.3037 25.4022 54.2675 25.9173 54.3653 26.3117C54.4723 26.7008 54.7883 26.9658 55.3134 27.1068C55.7436 27.2224 56.1078 27.1321 56.4057 26.8362C56.7129 26.5348 56.9486 26.0772 57.1128 25.4633C57.2769 24.8494 57.2982 24.346 57.1766 23.953C57.0623 23.5619 56.7827 23.3067 56.3379 23.1873ZM65.2339 27.6677C64.9703 28.6543 64.5111 29.3495 63.8555 29.7533C63.2024 30.1497 62.4385 30.2304 61.5635 29.9954C61.0239 29.8505 60.5748 29.6007 60.2163 29.2459C59.8578 28.8912 59.6198 28.4512 59.5023 27.9262C59.3847 27.4011 59.4139 26.8097 59.5897 26.152C59.8535 25.1653 60.3073 24.4764 60.9512 24.0854C61.6043 23.6889 62.3684 23.6082 63.2433 23.8432C63.7907 23.9901 64.243 24.2409 64.6017 24.5957C64.9621 24.9431 65.2012 25.3793 65.3189 25.9044C65.4384 26.4222 65.4101 27.0099 65.2339 27.6677ZM61.0008 26.5309C60.8328 27.1594 60.8122 27.6748 60.9392 28.077C61.0734 28.4813 61.3885 28.7499 61.8843 28.8831C62.3802 29.0163 62.7834 28.9405 63.0942 28.6557C63.412 28.3729 63.6548 27.9173 63.8228 27.2888C63.9908 26.6603 64.0071 26.1475 63.8706 25.7506C63.7416 25.3557 63.4258 25.0906 62.9225 24.9555C62.4341 24.8243 62.0318 24.8965 61.7159 25.172C61.4072 25.4494 61.1689 25.9024 61.0008 26.5309ZM69.4706 25.5153C70.2218 25.7171 70.7307 26.1671 70.9969 26.8653L71.0516 26.88L71.3882 26.1479L72.537 26.4563L70.9365 32.4419C70.71 33.2897 70.2972 33.8682 69.6983 34.1775C69.1075 34.4887 68.3375 34.517 67.39 34.2625C66.9666 34.1488 66.5847 34.0148 66.2424 33.8604C65.8989 33.7133 65.5844 33.5309 65.2987 33.3132L65.6032 32.173C66.1997 32.6621 66.9169 33.0193 67.7555 33.2445C68.2079 33.3659 68.5847 33.33 68.8867 33.1369C69.1937 32.9531 69.4114 32.6199 69.5404 32.1376L69.5813 31.9841C69.6109 31.8745 69.6486 31.7476 69.6952 31.6034C69.7417 31.4592 69.7839 31.3452 69.8216 31.2614L69.7782 31.2496C69.492 31.5017 69.1793 31.6607 68.8414 31.7266C68.5124 31.7872 68.1626 31.7675 67.7901 31.6676C67.0685 31.4737 66.5753 31.0515 66.3117 30.401C66.048 29.7506 66.0449 28.9429 66.3028 27.9782C66.5608 27.0135 66.9672 26.312 67.5221 25.8735C68.0846 25.437 68.7338 25.3176 69.4706 25.5153ZM69.5297 26.7415C68.669 26.5104 68.0619 27.0563 67.7083 28.3791C67.3604 29.68 67.624 30.4479 68.4992 30.6829C68.9805 30.8122 69.3693 30.7756 69.6656 30.5732C69.9714 30.3654 70.2092 29.9437 70.379 29.3078L70.435 29.0996C70.6225 28.3979 70.6408 27.8623 70.4891 27.4927C70.3451 27.125 70.0255 26.8746 69.5297 26.7415ZM77.4336 27.6538C77.5286 27.6792 77.6292 27.7103 77.7368 27.747C77.8513 27.7856 77.9463 27.8267 78.0206 27.8702L77.5575 29.1204C77.4883 29.0862 77.4034 29.0518 77.3033 29.0171C77.2052 28.975 77.1159 28.9432 77.036 28.9217C76.744 28.8434 76.454 28.8321 76.1659 28.8878C75.879 28.9362 75.6217 29.0667 75.3926 29.2794C75.1731 29.4868 75.0126 29.7805 74.9107 30.1605L74.0872 33.241L72.7087 32.8709L74.2973 26.9292L75.3587 27.2141L75.28 28.2975L75.3455 28.3151C75.6047 28.0478 75.9167 27.8457 76.2816 27.7087C76.6484 27.5644 77.0322 27.5461 77.4336 27.6538ZM81.2833 28.6875C82.0489 28.8931 82.5837 29.2169 82.8876 29.6588C83.1984 30.1027 83.2607 30.6755 83.0732 31.3771L82.0061 35.3675L81.0322 35.1061L80.9788 34.2104L80.9354 34.1987C80.5937 34.4517 80.2603 34.6168 79.935 34.6939C79.6117 34.7637 79.2059 34.733 78.717 34.6018C78.1848 34.4588 77.7834 34.1905 77.5135 33.7969C77.2436 33.4032 77.1926 32.8921 77.3606 32.2636C77.5248 31.6497 77.8702 31.249 78.3974 31.0615C78.9316 30.876 79.6595 30.8873 80.5805 31.0956L81.6173 31.3388L81.6966 31.0428C81.7967 30.6701 81.7765 30.3788 81.6375 30.1691C81.4997 29.952 81.2669 29.7994 80.9391 29.7113C80.6397 29.631 80.3402 29.5975 80.0395 29.6108C79.7463 29.6261 79.4493 29.6559 79.148 29.7004L78.9687 28.6182C79.3015 28.5431 79.6664 28.5079 80.0634 28.5128C80.4679 28.5196 80.875 28.5779 81.2833 28.6875ZM80.6611 32.022C80.0502 31.8814 79.6022 31.8747 79.3185 32.002C79.036 32.1221 78.8529 32.3392 78.7686 32.6536C78.6925 32.9385 78.7183 33.1647 78.8454 33.3321C78.9819 33.494 79.1851 33.6113 79.455 33.6837C79.8558 33.7914 80.2251 33.7692 80.5629 33.6171C80.9026 33.4576 81.1329 33.1513 81.2543 32.6982L81.389 32.1939L80.6611 32.022ZM88.4687 30.6171C89.1614 30.8031 89.6496 31.2124 89.9339 31.8448C90.2202 32.47 90.2277 33.2906 89.956 34.3064C89.6842 35.3223 89.2595 36.0346 88.6813 36.4433C88.1119 36.8466 87.4816 36.9554 86.7882 36.7693C86.351 36.6518 86.0188 36.4764 85.7917 36.2432C85.5652 36.0099 85.3997 35.7658 85.2959 35.5108L85.2085 35.4873C85.1934 35.632 85.1707 35.7904 85.1399 35.9624C85.1191 36.1291 85.0896 36.2818 85.0524 36.4207L84.4082 38.8325L83.0298 38.4624L85.3217 29.8895L86.4372 30.1892L86.4233 31.0313L86.4888 31.049C86.7159 30.8436 86.9915 30.6904 87.3155 30.5894C87.6395 30.4884 88.0239 30.4976 88.4687 30.6171ZM87.776 31.6295C87.2871 31.4983 86.9015 31.5515 86.6196 31.789C86.3441 32.0285 86.1239 32.4432 85.9584 33.0332L85.9112 33.2086C85.7413 33.8445 85.7055 34.3596 85.803 34.754C85.91 35.143 86.2264 35.4081 86.7511 35.5491C87.1815 35.6646 87.5457 35.5744 87.8433 35.2784C88.151 34.9771 88.3863 34.5195 88.5505 33.9056C88.7147 33.2916 88.7361 32.7882 88.6146 32.3952C88.5001 32.0042 88.2208 31.749 87.776 31.6295ZM93.6559 31.6928C93.593 31.9267 93.5207 32.1539 93.4382 32.3747C93.3653 32.59 93.3068 32.7505 93.2627 32.8562L93.3502 32.8797C93.6201 32.631 93.9271 32.4747 94.2725 32.4107C94.6179 32.3468 94.9765 32.3648 95.3489 32.4646C96.0196 32.6449 96.499 32.9576 96.7859 33.4029C97.0734 33.8482 97.1143 34.4546 96.9092 35.222L95.8749 39.0918L94.4965 38.7217L95.4578 35.126C95.6962 34.2343 95.4509 33.6906 94.7217 33.4947C94.1674 33.3459 93.7415 33.4194 93.4433 33.7155C93.1451 34.0114 92.9091 34.4846 92.7355 35.1351L91.9585 38.0402L90.5807 37.67L92.8078 29.3385L94.1863 29.7086L93.6559 31.6928ZM98.3015 33.3751L99.8001 33.7775L100.084 37.4493C100.108 37.6828 100.118 37.9087 100.114 38.1271C100.11 38.3454 100.091 38.5635 100.056 38.7813L100.1 38.793C100.178 38.6182 100.276 38.4289 100.393 38.2253C100.51 38.0218 100.633 37.8238 100.763 37.6314L102.797 34.5823L104.285 34.9818L99.958 41.0344C99.5736 41.5657 99.1426 41.9355 98.6651 42.144C98.1926 42.3618 97.6717 42.3944 97.103 42.2416C96.9205 42.1927 96.767 42.1396 96.6412 42.0824C96.5141 42.0325 96.4021 41.9829 96.3059 41.9336L96.599 40.8374C96.6758 40.8735 96.7664 40.9136 96.8721 40.9575C96.9847 41.0035 97.103 41.0431 97.2269 41.0764C97.5698 41.1684 97.8667 41.1386 98.1184 40.9868C98.3757 40.8443 98.5984 40.6379 98.7884 40.3677L99.0923 39.9323L98.3015 33.3751Z" fill="#111112"/>
<path d="M36.1251 47.1996L35.3594 46.994L36.807 41.5796L34.9098 41.0701L35.0899 40.3965L39.6416 41.6188L39.4615 42.2924L37.5727 41.7852L36.1251 47.1996ZM41.116 43.5592C41.6718 43.7085 42.0504 43.9411 42.2516 44.2571C42.4528 44.5731 42.482 44.9983 42.3392 45.5327L41.5071 48.6448L40.9626 48.4986L40.9912 47.8117L40.9572 47.8026C40.6918 47.9994 40.4325 48.1278 40.1794 48.1878C39.9319 48.2493 39.6154 48.2282 39.2297 48.1247C38.8157 48.0134 38.5014 47.8133 38.2869 47.5242C38.0739 47.2294 38.0297 46.8489 38.1544 46.3828C38.2759 45.9281 38.5481 45.6265 38.9707 45.478C39.395 45.3238 39.9816 45.3352 40.7307 45.5119L41.5117 45.6943L41.5847 45.4214C41.6865 45.0405 41.6749 44.7541 41.55 44.5622C41.425 44.3702 41.2122 44.2339 40.9116 44.1531C40.6734 44.0892 40.4366 44.0652 40.2013 44.0813C39.9676 44.0915 39.745 44.1171 39.5334 44.1577L39.4542 43.5333C39.6816 43.4786 39.9413 43.4509 40.2333 43.4501C40.5268 43.4436 40.821 43.48 41.116 43.5592ZM40.6852 46.0572C40.1119 45.9276 39.6934 45.9127 39.4297 46.0125C39.1716 46.1137 39.0038 46.3093 38.9263 46.5992C38.8579 46.855 38.8843 47.0632 39.0055 47.2236C39.1324 47.3857 39.3178 47.4994 39.5617 47.565C39.9474 47.6685 40.296 47.6494 40.6074 47.5076C40.9204 47.3602 41.1362 47.0648 41.2548 46.6214L41.3642 46.2121L40.6852 46.0572ZM44.4832 46.1267C44.4589 46.2176 44.4213 46.3355 44.3705 46.4802C44.3253 46.6265 44.2854 46.7528 44.2509 46.8593L44.2849 46.8685C44.3311 46.8322 44.3996 46.7805 44.4904 46.7135C44.5813 46.6465 44.6722 46.5795 44.763 46.5125C44.8611 46.4414 44.9432 46.3842 45.0095 46.3411L46.8769 45.1885L47.7533 45.4238L45.385 46.8806L46.6589 50.0283L45.7571 49.7861L44.7446 47.2295L44.1048 47.5421L43.6557 49.2218L42.9155 49.023L44.6481 42.5428L45.3883 42.7416L44.4832 46.1267ZM50.4661 46.0609C50.8574 46.166 51.1692 46.3411 51.4016 46.5863C51.6396 46.833 51.7905 47.1324 51.8544 47.4847C51.9255 47.8327 51.9055 48.2143 51.7946 48.6292L51.6738 49.0812L48.5514 48.2426C48.4244 48.763 48.4493 49.1931 48.6259 49.5329C48.8097 49.8686 49.1284 50.0974 49.5822 50.2193C49.8715 50.2969 50.1336 50.3399 50.3684 50.3481C50.6105 50.3522 50.8644 50.3351 51.1299 50.2968L50.9544 50.9533C50.6945 50.9932 50.445 51.0054 50.206 50.99C49.9655 50.9802 49.6892 50.9334 49.3772 50.8497C48.9461 50.7339 48.5869 50.543 48.2993 50.2769C48.0174 50.0123 47.8293 49.6816 47.7348 49.2845C47.6476 48.8834 47.6715 48.4298 47.8068 47.9239C47.9406 47.4237 48.1376 47.0166 48.3978 46.7026C48.6637 46.3902 48.9728 46.1777 49.3251 46.0652C49.683 45.9542 50.0633 45.9528 50.4661 46.0609ZM50.2934 46.6725C49.9361 46.5765 49.6213 46.617 49.3491 46.7936C49.0842 46.9662 48.8771 47.2518 48.728 47.6504L51.0507 48.2741C51.1483 47.886 51.1411 47.549 51.0291 47.2631C50.9187 46.9714 50.6734 46.7746 50.2934 46.6725ZM57.442 47.9434C57.9979 48.0926 58.3764 48.3253 58.5777 48.6413C58.7789 48.9573 58.8081 49.3825 58.6652 49.9168L57.8332 53.029L57.2886 52.8828L57.3173 52.1959L57.2832 52.1867C57.0178 52.3836 56.7586 52.512 56.5055 52.5719C56.258 52.6334 55.9415 52.6123 55.5557 52.5088C55.1417 52.3976 54.8274 52.1975 54.613 51.9084C54.3999 51.6135 54.3558 51.2331 54.4804 50.767C54.602 50.3122 54.8741 50.0106 55.2968 49.8621C55.721 49.708 56.3076 49.7193 57.0567 49.8961L57.8378 50.0784L57.9107 49.8056C58.0126 49.4247 58.001 49.1383 57.876 48.9464C57.751 48.7544 57.5383 48.6181 57.2377 48.5373C56.9994 48.4733 56.7627 48.4494 56.5274 48.4654C56.2936 48.4757 56.071 48.5012 55.8595 48.5419L55.7803 47.9175C56.0076 47.8628 56.2674 47.8351 56.5593 47.8342C56.8529 47.8278 57.1471 47.8641 57.442 47.9434ZM57.0112 50.4413C56.438 50.3118 56.0195 50.2969 55.7557 50.3966C55.4977 50.4979 55.3299 50.6935 55.2524 50.9834C55.184 51.2392 55.2103 51.4473 55.3316 51.6079C55.4585 51.7698 55.6439 51.8836 55.8878 51.9491C56.2735 52.0527 56.6221 52.0336 56.9335 51.8918C57.2465 51.7443 57.4623 51.4489 57.5808 51.0055L57.6902 50.5962L57.0112 50.4413ZM63.4762 54.5445L62.7107 54.3388L64.1582 48.9245L62.2611 48.415L62.4412 47.7414L66.9931 48.9637L66.8125 49.6373L64.9239 49.1301L63.4762 54.5445ZM70.1589 53.8806C69.9563 54.6366 69.6072 55.1703 69.1108 55.4817C68.6194 55.7946 68.0482 55.8634 67.3958 55.6883C66.9931 55.5802 66.6571 55.3925 66.3885 55.1253C66.1261 54.854 65.9519 54.5177 65.8644 54.1165C65.7789 53.7096 65.8034 53.2533 65.9387 52.7474C66.1412 51.9913 66.4866 51.4598 66.9761 51.1525C67.4656 50.8453 68.0368 50.7792 68.6886 50.9544C69.1026 51.0656 69.4411 51.2568 69.7028 51.5282C69.9714 51.7954 70.147 52.1289 70.2288 52.5285C70.3175 52.9239 70.2942 53.3746 70.1589 53.8806ZM66.7131 52.9553C66.5684 53.4953 66.559 53.9526 66.6836 54.3273C66.8157 54.6979 67.1139 54.9455 67.5795 55.0704C68.0387 55.1938 68.4181 55.1281 68.7169 54.8733C69.0177 54.6129 69.2404 54.2127 69.3845 53.6727C69.5292 53.1327 69.5342 52.6803 69.4008 52.3154C69.2674 51.9505 68.968 51.7057 68.503 51.5808C68.0381 51.4559 67.6594 51.5188 67.3674 51.7693C67.0755 52.02 66.8572 52.4152 66.7131 52.9553ZM75.7658 52.9461L74.5434 57.5164L73.9313 57.3519L73.9822 56.7168L73.9482 56.7076C73.7368 56.9068 73.4858 57.0282 73.1945 57.0718C72.9045 57.1097 72.6119 57.0891 72.3175 57.0099C71.767 56.8622 71.3883 56.6203 71.18 56.2841C70.9737 55.9423 70.9479 55.4815 71.1026 54.9017L71.9029 51.9089L72.6604 52.1123L71.874 55.0539C71.6789 55.7815 71.9193 56.236 72.5943 56.4172C73.0989 56.5527 73.4858 56.5043 73.7545 56.2719C74.0294 56.0409 74.2376 55.6583 74.3811 55.124L75.0171 52.7451L75.7658 52.9461ZM79.3632 53.8209C79.4482 53.8437 79.5375 53.8738 79.6306 53.911C79.7313 53.9441 79.8162 53.9791 79.8854 54.0159L79.6073 54.6815C79.5381 54.6446 79.4595 54.6083 79.372 54.5726C79.2896 54.5383 79.2091 54.5106 79.1298 54.4893C78.897 54.4268 78.6611 54.4335 78.422 54.5095C78.1842 54.5796 77.9722 54.7146 77.7847 54.9141C77.6048 55.1095 77.4739 55.3607 77.3921 55.6676L76.7397 58.1062L75.9911 57.9051L77.2135 53.3349L77.8256 53.4994L77.6872 54.3579L77.7218 54.367C77.9357 54.1565 78.1836 53.9915 78.4648 53.8721C78.7461 53.7526 79.0455 53.7356 79.3632 53.8209ZM85.3501 57.6493C85.3388 57.3965 85.3344 57.1516 85.3369 56.9147C85.347 56.6736 85.3539 56.4867 85.3589 56.3541L85.325 56.3449C85.269 56.4639 85.1853 56.6302 85.0733 56.8438C84.9632 57.0518 84.8361 57.2645 84.6927 57.482L83.1903 59.8291L82.3391 59.6007L82.3107 54.6946L83.0846 54.9025L83.0619 57.5102C83.0594 57.7713 83.0525 58.0346 83.0424 58.2999C83.0324 58.5653 83.0167 58.7834 82.9953 58.9543L83.0292 58.9635C83.0777 58.8729 83.1356 58.7604 83.2016 58.6259C83.274 58.493 83.3501 58.3551 83.4306 58.2123C83.513 58.0638 83.5904 57.9323 83.664 57.8179L85.1607 55.46L85.9774 55.6793L86.0718 58.4645C86.0824 58.6745 86.0856 58.9008 86.0818 59.1434C86.0831 59.3876 86.073 59.5951 86.0516 59.7661L86.0862 59.7751C86.141 59.6376 86.2303 59.4514 86.3536 59.2166C86.4832 58.9832 86.6166 58.7449 86.7544 58.5017L88.0447 56.2344L88.8104 56.4401L86.3209 60.6699L85.4445 60.4345L85.3501 57.6493ZM90.4669 55.0572C90.5808 55.0877 90.6689 55.1541 90.733 55.2566C90.8041 55.3548 90.8173 55.4864 90.7733 55.6512C90.7305 55.8104 90.6538 55.9175 90.5411 55.9728C90.4348 56.0295 90.3254 56.0426 90.2115 56.0122C90.0869 55.9787 89.9925 55.9107 89.929 55.8083C89.8648 55.7059 89.8548 55.575 89.8969 55.4159C89.941 55.2511 90.0158 55.1431 90.1203 55.0921C90.2266 55.0353 90.3423 55.0237 90.4669 55.0572ZM90.3744 56.8693L89.1526 61.4395L88.404 61.2385L89.6257 56.6682L90.3744 56.8693ZM92.2618 61.7078C92.3751 61.7383 92.494 61.761 92.6173 61.7759C92.7425 61.7851 92.8451 61.7883 92.925 61.7854L92.7721 62.3566C92.6821 62.3751 92.5607 62.3759 92.4066 62.359C92.2518 62.3479 92.1065 62.324 91.9699 62.2875C91.7321 62.2235 91.5213 62.1243 91.3383 61.9898C91.1627 61.8513 91.0394 61.6629 90.9696 61.4248C90.8998 61.1866 90.9142 60.8828 91.013 60.5134L91.7239 57.8531L91.0772 57.6794L91.1734 57.3213L91.9083 57.1988L92.4657 56.3068L92.908 56.4256L92.628 57.4743L93.9467 57.8284L93.7913 58.4082L92.4726 58.0541L91.7661 60.6973C91.6912 60.9758 91.7013 61.2009 91.795 61.3723C91.8963 61.5396 92.0517 61.6514 92.2618 61.7078ZM95.6447 58.2753C95.5837 58.5027 95.5126 58.712 95.4308 58.9034L95.4818 58.9171C95.6919 58.7236 95.9373 58.6007 96.2191 58.5483C96.506 58.4975 96.7973 58.5117 97.0924 58.5909C97.6479 58.7402 98.0292 58.9857 98.2355 59.3275C98.4438 59.6636 98.4696 60.1244 98.3129 60.7099L97.5171 63.6855L96.7772 63.4869L97.5592 60.5623C97.7549 59.829 97.5126 59.371 96.8319 59.1882C96.3217 59.0511 95.931 59.1017 95.6611 59.3398C95.3975 59.5737 95.1949 59.9579 95.0521 60.4922L94.4204 62.854L93.6717 62.653L95.4044 56.1728L96.1531 56.3739L95.6447 58.2753ZM105.718 63.4295C105.517 64.1855 105.167 64.7196 104.671 65.031C104.18 65.3438 103.608 65.4125 102.956 65.2372C102.553 65.1294 102.217 64.9415 101.948 64.6748C101.686 64.403 101.512 64.067 101.425 63.666C101.339 63.2586 101.364 62.8025 101.499 62.2966C101.701 61.5406 102.047 61.0089 102.536 60.7018C103.026 60.3945 103.596 60.3285 104.249 60.5036C104.663 60.6148 105.001 60.8061 105.262 61.0775C105.532 61.3446 105.707 61.6781 105.788 62.0777C105.877 62.4732 105.854 62.9239 105.718 63.4295ZM102.273 62.5045C102.129 63.0445 102.119 63.502 102.244 63.8766C102.376 64.2473 102.674 64.4945 103.139 64.6199C103.599 64.7429 103.978 64.6773 104.277 64.4226C104.578 64.1622 104.8 63.7618 104.945 63.2221C105.089 62.6819 105.094 62.2294 104.961 61.8646C104.828 61.4998 104.528 61.2549 104.063 61.13C103.598 61.0052 103.22 61.068 102.928 61.3186C102.636 61.5692 102.417 61.9645 102.273 62.5045ZM111.325 62.4954L110.104 67.0657L109.491 66.9012L109.542 66.2662L109.508 66.2568C109.297 66.456 109.046 66.5777 108.755 66.6212C108.465 66.6591 108.172 66.6382 107.877 66.5594C107.327 66.4113 106.948 66.1698 106.74 65.8331C106.534 65.4913 106.508 65.031 106.663 64.451L107.463 61.4581L108.22 61.6615L107.434 64.6029C107.239 65.3305 107.479 65.7851 108.155 65.9661C108.659 66.1017 109.046 66.0537 109.315 65.8211C109.59 65.5903 109.798 65.2076 109.941 64.6735L110.577 62.2943L111.325 62.4954ZM114.923 63.3702C115.008 63.3929 115.097 63.4232 115.191 63.4604C115.291 63.4932 115.376 63.5285 115.446 63.5651L115.167 64.2309C115.098 64.1937 115.02 64.1578 114.932 64.1218C114.85 64.0878 114.769 64.06 114.689 64.0386C114.457 63.9762 114.221 63.9825 113.982 64.0588C113.744 64.1288 113.532 64.2637 113.345 64.4636C113.165 64.659 113.034 64.91 112.952 65.217L112.3 67.6553L111.551 67.4541L112.773 62.8842L113.386 63.0487L113.247 63.9068L113.281 63.9163C113.496 63.7057 113.744 63.5405 114.025 63.4213C114.306 63.3022 114.606 63.2845 114.923 63.3702ZM120.444 65.5657L119.296 65.2574L118.229 69.2473L117.48 69.0462L118.547 65.0563L117.747 64.8413L117.841 64.4919L118.709 64.451L118.779 64.1861C118.937 63.5953 119.181 63.2069 119.51 63.021C119.841 62.8296 120.239 62.7963 120.705 62.9212C120.886 62.9699 121.046 63.0312 121.184 63.1048C121.33 63.1742 121.451 63.2435 121.548 63.3122L121.195 63.8482C121.112 63.7952 121.015 63.7385 120.903 63.6786C120.791 63.618 120.674 63.5708 120.549 63.5373C120.299 63.4705 120.089 63.5052 119.919 63.6426C119.756 63.775 119.626 64.021 119.531 64.3791L119.451 64.6773L120.6 64.9856L120.444 65.5657ZM123.17 65.5941C123.726 65.7429 124.104 65.9756 124.306 66.2915C124.507 66.608 124.536 67.033 124.393 67.567L123.561 70.6793L123.017 70.533L123.045 69.8463L123.011 69.8375C122.746 70.0342 122.486 70.1622 122.233 70.2221C121.986 70.2839 121.669 70.2631 121.283 70.1591C120.869 70.0481 120.555 69.8482 120.341 69.5588C120.128 69.2637 120.084 68.8835 120.208 68.4176C120.33 67.963 120.602 67.6609 121.025 67.5128C121.449 67.3583 122.036 67.3696 122.785 67.5468L123.566 67.729L123.639 67.456C123.74 67.0752 123.729 66.7889 123.604 66.5966C123.479 66.405 123.266 66.2688 122.966 66.1881C122.727 66.1237 122.491 66.0998 122.255 66.1155C122.021 66.1263 121.799 66.1515 121.587 66.1925L121.508 65.5682C121.736 65.5134 121.995 65.4857 122.288 65.485C122.581 65.4781 122.875 65.5147 123.17 65.5941ZM122.739 68.0916C122.166 67.9623 121.748 67.9472 121.483 68.0468C121.226 68.1483 121.058 68.3438 120.98 68.6338C120.912 68.8898 120.938 69.0979 121.059 69.2581C121.187 69.4201 121.372 69.5342 121.616 69.5998C122.001 69.7032 122.35 69.6843 122.661 69.5424C122.975 69.3949 123.19 69.0992 123.309 68.6559L123.418 68.2467L122.739 68.0916ZM127.029 66.3558C126.977 66.5493 126.923 66.7297 126.866 66.8974C126.816 67.0607 126.773 67.1887 126.736 67.2826L126.778 67.294C126.96 67.1357 127.182 67.0216 127.444 66.9516C127.706 66.8823 128.016 66.8949 128.373 66.9907C128.94 67.1433 129.341 67.4642 129.575 67.9535C129.816 68.4384 129.832 69.0733 129.621 69.8577C129.412 70.6421 129.081 71.1868 128.629 71.492C128.176 71.7972 127.669 71.8741 127.108 71.7234C126.751 71.6276 126.476 71.4832 126.284 71.2915C126.092 71.0998 125.955 70.8955 125.873 70.6786L125.814 70.6629L125.506 71.2013L124.97 71.0576L126.702 64.5777L127.451 64.7788L127.029 66.3558ZM128.079 67.579C127.597 67.4497 127.225 67.4989 126.963 67.7272C126.702 67.9554 126.493 68.3627 126.336 68.9478L126.327 68.9819C126.176 69.545 126.152 70.0015 126.252 70.3514C126.361 70.6969 126.664 70.9371 127.163 71.0708C127.572 71.1805 127.916 71.1118 128.194 70.8634C128.479 70.6175 128.698 70.2095 128.849 69.6414C129.158 68.4876 128.901 67.8003 128.079 67.579ZM135.237 68.9163L134.015 73.487L133.403 73.3224L133.454 72.6875L133.42 72.678C133.209 72.8773 132.957 72.9983 132.666 73.0425C132.376 73.0803 132.084 73.0595 131.789 72.98C131.239 72.8325 130.86 72.5904 130.652 72.2543C130.445 71.9126 130.42 71.4517 130.575 70.8722L131.375 67.8791L132.132 68.0828L131.345 71.0242C131.151 71.7518 131.391 72.2064 132.066 72.3873C132.571 72.5229 132.958 72.475 133.226 72.2423C133.501 72.0116 133.71 71.6288 133.852 71.0941L134.488 68.7158L135.237 68.9163ZM136.212 74.0765L135.463 73.8754L137.196 67.3955L137.944 67.5966L136.212 74.0765ZM142.234 73.2354C142.032 73.9914 141.683 74.5254 141.186 74.8369C140.695 75.1497 140.124 75.2184 139.471 75.0431C139.069 74.9353 138.733 74.7474 138.464 74.48C138.202 74.2089 138.027 73.8729 137.94 73.4718C137.854 73.0645 137.879 72.608 138.015 72.1023C138.217 71.3464 138.562 70.8148 139.052 70.5078C139.541 70.2001 140.112 70.1345 140.764 70.3091C141.179 70.4207 141.517 70.6118 141.778 70.8835C142.047 71.1503 142.222 71.4838 142.304 71.8836C142.393 72.2789 142.37 72.7297 142.234 73.2354ZM138.789 72.3104C138.644 72.8501 138.634 73.3079 138.759 73.6824C138.891 74.0532 139.19 74.3004 139.655 74.4252C140.114 74.5488 140.494 74.4832 140.792 74.2285C141.093 73.9681 141.316 73.5677 141.46 73.028C141.605 72.4876 141.61 72.0355 141.476 71.6704C141.343 71.3054 141.044 71.0607 140.578 70.9359C140.114 70.811 139.735 70.8741 139.443 71.1244C139.151 71.3747 138.933 71.7701 138.789 72.3104ZM147.841 72.301L146.619 76.8716L146.007 76.7071L146.058 76.0721L146.024 76.0627C145.812 76.2619 145.561 76.383 145.27 76.4271C144.98 76.4649 144.688 76.4441 144.393 76.3647C143.842 76.2171 143.464 75.975 143.255 75.6389C143.049 75.2972 143.023 74.8363 143.178 74.2568L143.978 71.2638L144.736 71.4674L143.949 74.4088C143.755 75.1364 143.995 75.591 144.67 75.772C145.175 75.9076 145.561 75.8596 145.831 75.627C146.105 75.3962 146.314 75.0135 146.457 74.4788L147.093 72.1005L147.841 72.301ZM151.373 76.7953C151.255 77.2392 151.001 77.5305 150.611 77.6692C150.221 77.8086 149.749 77.8029 149.193 77.6541C148.875 77.5683 148.607 77.4694 148.388 77.3552C148.175 77.2436 147.992 77.1181 147.841 76.9801L148.023 76.2978C148.18 76.4378 148.376 76.5816 148.61 76.7298C148.851 76.8735 149.105 76.9813 149.371 77.0532C149.751 77.1554 150.043 77.1692 150.245 77.0955C150.448 77.016 150.577 76.8741 150.632 76.6698C150.662 76.5557 150.659 76.4454 150.621 76.3376C150.582 76.2297 150.494 76.1087 150.353 75.9731C150.219 75.8395 150.016 75.6755 149.746 75.4813C149.481 75.2884 149.259 75.1068 149.08 74.9372C148.901 74.7669 148.776 74.5872 148.704 74.3975C148.634 74.2077 148.631 73.9876 148.699 73.7379C148.802 73.3514 149.038 73.0948 149.406 72.9681C149.78 72.8432 150.222 72.8489 150.732 72.9863C151.01 73.0607 151.261 73.1585 151.484 73.2795C151.714 73.3962 151.921 73.5311 152.105 73.6837L151.69 74.2121C151.519 74.0809 151.335 73.9586 151.141 73.8451C150.946 73.7322 150.738 73.6459 150.517 73.5866C150.211 73.504 149.962 73.492 149.77 73.55C149.585 73.6043 149.47 73.7165 149.425 73.8874C149.391 74.0122 149.399 74.1301 149.449 74.2411C149.5 74.3457 149.598 74.4637 149.746 74.5948C149.9 74.7215 150.107 74.8804 150.366 75.0721C150.626 75.2575 150.843 75.4347 151.018 75.6036C151.191 75.772 151.31 75.9529 151.374 76.1465C151.439 76.335 151.439 76.5513 151.373 76.7953ZM156.013 78.8275C156.126 78.8578 156.244 78.8805 156.368 78.8956C156.493 78.9044 156.596 78.9076 156.676 78.9051L156.523 79.4763C156.433 79.4946 156.311 79.4952 156.157 79.4782C156.002 79.4675 155.856 79.4435 155.721 79.4069C155.482 79.3426 155.272 79.2436 155.089 79.1093C154.913 78.9706 154.79 78.7821 154.72 78.5444C154.65 78.3061 154.664 78.0021 154.763 77.6327L155.475 74.9725L154.828 74.7991L154.923 74.441L155.658 74.318L156.216 73.4264L156.659 73.545L156.378 74.5935L157.697 74.9479L157.542 75.528L156.223 75.1736L155.517 77.8168C155.442 78.0955 155.452 78.3206 155.546 78.4921C155.647 78.6591 155.802 78.7707 156.013 78.8275ZM162 78.5438C161.798 79.2998 161.448 79.8332 160.952 80.1447C160.461 80.4574 159.889 80.5261 159.237 80.3515C158.834 80.243 158.498 80.0551 158.23 79.7884C157.968 79.5167 157.793 79.1806 157.706 78.7796C157.62 78.3723 157.645 77.9164 157.78 77.4101C157.982 76.6541 158.328 76.1226 158.818 75.8155C159.307 75.5084 159.878 75.4422 160.53 75.6175C160.944 75.7285 161.282 75.9195 161.544 76.1913C161.813 76.4586 161.988 76.7915 162.07 77.1913C162.159 77.5866 162.135 78.0375 162 78.5438ZM158.554 77.6182C158.41 78.1579 158.4 78.6156 158.525 78.9902C158.657 79.3609 158.956 79.6087 159.421 79.7336C159.88 79.8565 160.259 79.7909 160.558 79.5362C160.859 79.2758 161.081 78.8754 161.226 78.3357C161.37 77.7953 161.376 77.3432 161.242 76.9782C161.109 76.6137 160.81 76.3685 160.344 76.2436C159.879 76.1188 159.501 76.1818 159.209 76.4321C158.917 76.6831 158.699 77.0784 158.554 77.6182ZM167.607 77.6093L166.385 82.1794L165.772 82.0148L165.823 81.3798L165.789 81.3704C165.579 81.5696 165.327 81.6913 165.036 81.7348C164.746 81.7727 164.454 81.7519 164.159 81.673C163.608 81.5249 163.229 81.2834 163.021 80.9473C162.815 80.6049 162.789 80.1447 162.944 79.5646L163.744 76.5721L164.501 76.7751L163.715 79.7165C163.521 80.4442 163.76 80.8988 164.435 81.0804C164.941 81.2159 165.327 81.1674 165.596 80.9347C165.87 80.7039 166.079 80.3212 166.222 79.7872L166.858 77.4082L167.607 77.6093ZM171.204 78.4839C171.289 78.5066 171.379 78.5368 171.472 78.574C171.572 78.6068 171.657 78.6421 171.727 78.6787L171.448 79.3445C171.379 79.3073 171.301 79.2714 171.213 79.2354C171.131 79.2014 171.05 79.1737 170.971 79.1522C170.738 79.0898 170.502 79.0967 170.263 79.1724C170.026 79.2424 169.813 79.3773 169.626 79.5772C169.447 79.7727 169.316 80.0236 169.233 80.3307L168.581 82.7689L167.833 82.5678L169.055 77.9977L169.667 78.1623L169.529 79.0211L169.563 79.0299C169.777 78.8193 170.025 78.6547 170.306 78.5349C170.587 78.4158 170.887 78.3987 171.204 78.4839ZM182.263 79.9183L179.019 85.5722L178.245 85.3641L178.129 81.0564C178.128 80.8792 178.127 80.702 178.125 80.5249C178.124 80.3483 178.126 80.1932 178.131 80.0608C178.137 79.9221 178.142 79.8256 178.144 79.7714C178.119 79.8439 178.045 79.9946 177.923 80.2241C177.808 80.4492 177.676 80.6819 177.527 80.9221L175.318 84.5785L174.544 84.3704L174.564 77.8508L175.364 78.0652L175.314 82.0362C175.312 82.3162 175.301 82.5841 175.281 82.8408C175.267 83.0993 175.245 83.3401 175.216 83.564C175.303 83.3496 175.41 83.1195 175.537 82.8729C175.664 82.627 175.797 82.3887 175.938 82.1585L177.992 78.7714L178.784 78.9839L178.909 82.9833C178.918 83.2664 178.916 83.5463 178.903 83.8231C178.892 84.0936 178.874 84.3326 178.848 84.5394C178.933 84.3364 179.033 84.1201 179.15 83.8893C179.268 83.6529 179.396 83.4101 179.536 83.1611L181.464 79.7033L182.263 79.9183ZM183.53 80.0482C183.643 80.0785 183.732 80.1453 183.795 80.2474C183.866 80.3458 183.88 80.4769 183.836 80.6421C183.793 80.801 183.716 80.9082 183.604 80.9637C183.498 81.0205 183.388 81.0337 183.274 81.0028C183.15 80.9694 183.055 80.9013 182.991 80.7991C182.928 80.697 182.917 80.5658 182.96 80.407C183.004 80.2418 183.078 80.1339 183.183 80.0829C183.289 80.0261 183.405 80.0148 183.53 80.0482ZM183.437 81.8603L182.216 86.4303L181.467 86.2292L182.689 81.6592L183.437 81.8603ZM186.604 87.6088L183.269 86.7134L183.401 86.2185L186.786 83.3811L184.48 82.762L184.635 82.1819L187.766 83.0224L187.616 83.5854L184.283 86.3641L186.759 87.0293L186.604 87.6088ZM190.626 83.7084C191.182 83.8578 191.56 84.0905 191.761 84.4064C191.963 84.7222 191.992 85.1472 191.849 85.6819L191.017 88.7942L190.472 88.6479L190.501 87.9606L190.467 87.9518C190.202 88.1485 189.943 88.2771 189.69 88.337C189.442 88.3982 189.125 88.3774 188.74 88.274C188.326 88.1624 188.011 87.9625 187.797 87.6731C187.584 87.3786 187.54 86.9978 187.664 86.5318C187.786 86.0772 188.058 85.7759 188.48 85.627C188.905 85.4732 189.492 85.4846 190.241 85.6611L191.022 85.8433L191.095 85.5703C191.196 85.1895 191.185 84.9032 191.06 84.7115C190.935 84.5192 190.722 84.383 190.421 84.3023C190.184 84.2386 189.946 84.2147 189.711 84.2304C189.478 84.2405 189.255 84.2664 189.044 84.3067L188.964 83.6825C189.191 83.6277 189.451 83.5999 189.743 83.5993C190.037 83.593 190.331 83.6289 190.626 83.7084ZM190.196 86.2065C189.622 86.0766 189.203 86.0621 188.94 86.1617C188.682 86.2626 188.514 86.4587 188.436 86.7481C188.368 87.0041 188.394 87.2122 188.516 87.373C188.642 87.535 188.828 87.6485 189.072 87.7141C189.458 87.8175 189.806 87.7986 190.118 87.6567C190.43 87.5092 190.646 87.2141 190.765 86.7708L190.874 86.361L190.196 86.2065ZM195.797 85.088C195.882 85.1107 195.972 85.1409 196.065 85.1781C196.165 85.2109 196.25 85.2462 196.32 85.2828L196.041 85.9486C195.972 85.9114 195.894 85.8755 195.806 85.8395C195.724 85.8055 195.643 85.7777 195.564 85.7563C195.331 85.6939 195.095 85.7008 194.856 85.7765C194.618 85.8465 194.406 85.9814 194.219 86.1813C194.04 86.3767 193.908 86.6277 193.826 86.9348L193.174 89.373L192.426 89.1725L193.648 84.6018L194.26 84.7664L194.122 85.6252L194.156 85.634C194.37 85.4234 194.618 85.2588 194.899 85.139C195.18 85.0199 195.48 85.0028 195.797 85.088ZM197.368 90.5905C196.8 90.4386 196.399 90.1201 196.164 89.6365C195.929 89.1472 195.918 88.5104 196.127 87.7261C196.337 86.9417 196.665 86.3963 197.112 86.0898C197.566 85.779 198.076 85.7002 198.644 85.8521C198.995 85.9467 199.264 86.0892 199.45 86.279C199.642 86.4707 199.784 86.6794 199.875 86.9051L199.927 86.919C199.941 86.8433 199.958 86.7324 199.979 86.5854C200.008 86.4347 200.033 86.3168 200.056 86.2317L200.544 84.407L201.292 84.6081L199.56 91.088L198.956 90.9259L199.009 90.2822L198.975 90.2734C198.788 90.4297 198.562 90.5458 198.299 90.6214C198.035 90.6971 197.725 90.6864 197.368 90.5905ZM197.653 90.0004C198.135 90.1296 198.508 90.0899 198.77 89.8799C199.041 89.6662 199.247 89.2916 199.39 88.7576L199.426 88.6214C199.578 88.0527 199.601 87.593 199.494 87.2412C199.389 86.8843 199.084 86.6378 198.579 86.5022C198.177 86.3938 197.829 86.4745 197.539 86.7437C197.255 87.0085 197.041 87.4114 196.897 87.9512C196.751 88.4966 196.737 88.9467 196.855 89.3017C196.979 89.658 197.244 89.8906 197.653 90.0004ZM32.6707 58.1078C32.7841 58.1383 32.9027 58.161 33.0264 58.1759C33.1515 58.1852 33.2541 58.1883 33.3338 58.1854L33.1811 58.7567C33.0911 58.7751 32.9693 58.776 32.8158 58.7591C32.6607 58.7479 32.5151 58.724 32.3789 58.6875C32.1407 58.6235 31.9302 58.5243 31.7472 58.3899C31.5715 58.2513 31.4486 58.063 31.3785 57.8248C31.3085 57.5867 31.3229 57.2829 31.4216 56.9134L32.1329 54.2531L31.4863 54.0794L31.5821 53.7214L32.3169 53.5989L32.8746 52.7068L33.317 52.8256L33.0366 53.8743L34.3553 54.2285L34.2003 54.8083L32.8816 54.4542L32.1749 57.0974C32.1004 57.3759 32.1102 57.6009 32.2042 57.7723C32.3053 57.9396 32.4609 58.0515 32.6707 58.1078ZM38.6584 57.8241C38.4563 58.58 38.1069 59.1138 37.6103 59.4251C37.1194 59.7381 36.5477 59.8069 35.8954 59.6318C35.4927 59.5236 35.1569 59.336 34.8879 59.0688C34.6261 58.7975 34.4516 58.4612 34.3643 58.06C34.2786 57.6531 34.3033 57.1967 34.4386 56.6909C34.6407 55.9348 34.9865 55.4032 35.4759 55.096C35.9653 54.7888 36.5362 54.7228 37.1885 54.8979C37.6026 55.0091 37.9405 55.2003 38.2022 55.4717C38.4713 55.7389 38.6465 56.0723 38.7281 56.472C38.8169 56.8674 38.7937 57.3181 38.6584 57.8241ZM35.2128 56.8988C35.0684 57.4388 35.0586 57.8961 35.1833 58.2708C35.3153 58.6413 35.6138 58.889 36.0789 59.0139C36.5383 59.1373 36.9176 59.0716 37.2167 58.8169C37.5174 58.5564 37.7398 58.1561 37.8842 57.6162C38.0286 57.0761 38.0341 56.6237 37.9006 56.2589C37.7671 55.894 37.4679 55.6492 37.0028 55.5243C36.5377 55.3994 36.1592 55.4622 35.8673 55.7129C35.5753 55.9634 35.3572 56.3588 35.2128 56.8988ZM40.8255 60.9557C40.2583 60.8034 39.8569 60.4854 39.6215 60.0018C39.3876 59.5125 39.3755 58.8756 39.5852 58.0912C39.795 57.3068 40.1232 56.7613 40.5699 56.4547C41.0238 56.1441 41.5343 56.0649 42.1015 56.2172C42.4532 56.3117 42.7221 56.4539 42.9083 56.6441C43.1003 56.8358 43.242 57.0444 43.3337 57.2701L43.3847 57.2838C43.3988 57.2083 43.4164 57.0973 43.4373 56.9507C43.4655 56.7998 43.491 56.6817 43.5138 56.5965L44.0017 54.7718L44.7503 54.9728L43.0177 61.453L42.4137 61.2908L42.4672 60.6472L42.4332 60.6381C42.2454 60.7948 42.0199 60.9109 41.7565 60.9864C41.4932 61.0618 41.1828 61.0516 40.8255 60.9557ZM41.111 60.3652C41.5931 60.4947 41.9656 60.4546 42.2283 60.2449C42.4983 60.0311 42.7046 59.6569 42.8475 59.1226L42.884 58.9862C43.036 58.4178 43.0586 57.9578 42.952 57.6063C42.8469 57.249 42.542 57.0026 42.0372 56.8671C41.6345 56.7589 41.2877 56.8394 40.9969 57.1086C40.7133 57.3737 40.4992 57.7761 40.3549 58.3162C40.209 58.8619 40.195 59.312 40.313 59.6666C40.4366 60.0227 40.7026 60.2556 41.111 60.3652ZM47.4356 57.6588C47.9915 57.808 48.37 58.0407 48.5712 58.3567C48.7724 58.6727 48.8016 59.0979 48.6588 59.6322L47.8267 62.7444L47.2822 62.5982L47.3108 61.9113L47.2768 61.9022C47.0114 62.099 46.7521 62.2274 46.499 62.2873C46.2516 62.3488 45.935 62.3278 45.5493 62.2242C45.1353 62.1131 44.821 61.9129 44.6065 61.6238C44.3935 61.3289 44.3493 60.9485 44.4739 60.4824C44.5956 60.0277 44.8677 59.726 45.2904 59.5775C45.7145 59.4234 46.3012 59.4347 47.0503 59.6115L47.8314 59.7939L47.9043 59.521C48.0061 59.1401 47.9945 58.8538 47.8696 58.6618C47.7446 58.4698 47.5318 58.3335 47.2312 58.2527C46.993 58.1887 46.7562 58.1648 46.5209 58.1808C46.2872 58.1911 46.0645 58.2167 45.8531 58.2573L45.7738 57.6329C46.0012 57.5782 46.2609 57.5505 46.5529 57.5497C46.8464 57.5432 47.1407 57.5796 47.4356 57.6588ZM47.0049 60.1568C46.4316 60.0272 46.0131 60.0123 45.7493 60.112C45.4912 60.2134 45.3234 60.4089 45.2459 60.6989C45.1775 60.9546 45.2039 61.1628 45.3252 61.3233C45.4521 61.4853 45.6374 61.599 45.8813 61.6645C46.267 61.7681 46.6156 61.749 46.9271 61.6072C47.24 61.4598 47.4558 61.1643 47.5743 60.7209L47.6838 60.3116L47.0049 60.1568ZM49.7424 58.3605L50.5421 58.5753L50.8337 61.4409C50.858 61.6911 50.8761 61.9305 50.8879 62.1591C50.9012 62.382 50.8999 62.5918 50.8837 62.7885L50.9178 62.7977C50.9898 62.6647 51.0931 62.4945 51.2276 62.2869C51.3637 62.0736 51.5025 61.8611 51.6442 61.6494L53.2646 59.3063L54.0729 59.5234L50.717 64.1969C50.4427 64.5859 50.1437 64.8747 49.8201 65.0619C49.5021 65.2505 49.1219 65.2858 48.6795 65.1666C48.5434 65.13 48.4266 65.0897 48.329 65.0449C48.23 65.0065 48.1459 64.9686 48.0767 64.9314L48.2363 64.3349C48.2956 64.3627 48.3663 64.3942 48.4483 64.4283C48.536 64.4642 48.6281 64.4951 48.7245 64.521C48.9854 64.5909 49.2151 64.5733 49.4134 64.468C49.6173 64.3646 49.7974 64.2025 49.9536 63.9825L50.3536 63.4415L49.7424 58.3605ZM54.6939 62.7516L54.209 62.6214L55.1658 58.1902L56.0761 58.4346L54.6939 62.7516ZM53.5846 63.7971C53.6409 63.5865 53.7314 63.4528 53.8563 63.3948C53.9812 63.3368 54.1174 63.328 54.2649 63.3677C54.4067 63.4056 54.5172 63.4812 54.5965 63.5935C54.6815 63.7076 54.6958 63.8703 54.6396 64.0802C54.5849 64.2851 54.4915 64.4182 54.3594 64.4806C54.233 64.5436 54.0989 64.5569 53.9571 64.5184C53.8096 64.4787 53.697 64.3999 53.6192 64.2814C53.5415 64.1634 53.5299 64.002 53.5846 63.7971ZM62.2429 60.7212C61.5906 60.5461 61.0188 60.627 60.5274 60.9642C60.036 61.3014 59.6885 61.8508 59.4849 62.6126C59.2827 63.3684 59.2954 64.0146 59.5228 64.5512C59.7575 65.0834 60.2236 65.4428 60.9213 65.63C61.1878 65.7019 61.4463 65.7467 61.6967 65.7656C61.9471 65.7839 62.1948 65.7896 62.44 65.782L62.2621 66.4472C62.0125 66.4718 61.7604 66.4712 61.5058 66.4453C61.2569 66.4207 60.9652 66.364 60.6306 66.2738C60.0123 66.108 59.5304 65.8419 59.1847 65.4743C58.8391 65.1073 58.6244 64.6603 58.5407 64.1319C58.4626 63.6054 58.5087 63.0237 58.6789 62.387C58.843 61.7731 59.098 61.2627 59.4439 60.856C59.7969 60.4451 60.2267 60.1676 60.7334 60.0234C61.2415 59.8736 61.8075 59.8824 62.4315 60.0499C63.0723 60.2221 63.5989 60.4914 64.0116 60.8581L63.5322 61.4239C63.368 61.2883 63.1786 61.1552 62.9641 61.0246C62.7555 60.8954 62.5151 60.7943 62.2429 60.7212ZM64.1909 67.1389L63.4422 66.9377L65.1749 60.4577L65.9236 60.6588L64.1909 67.1389ZM67.699 61.3456C67.8122 61.3761 67.9009 61.4426 67.9645 61.545C68.0356 61.6432 68.0494 61.7748 68.0054 61.9396C67.9626 62.0988 67.8852 62.206 67.7732 62.2612C67.6669 62.3179 67.5568 62.3311 67.4436 62.3006C67.319 62.2671 67.2246 62.1991 67.1605 62.0967C67.0969 61.9943 67.0862 61.8635 67.129 61.7043C67.173 61.5395 67.2473 61.4315 67.3523 61.3804C67.4587 61.3237 67.5744 61.3121 67.699 61.3456ZM67.6065 63.1578L66.3847 67.7278L65.6361 67.5267L66.8578 62.9566L67.6065 63.1578ZM69.6355 68.6925C69.2328 68.584 68.895 68.405 68.6213 68.1547C68.3533 67.9062 68.1753 67.584 68.0865 67.1887C68.0035 66.7946 68.0337 66.328 68.1784 65.7877C68.3288 65.2252 68.5446 64.7927 68.8258 64.4907C69.1076 64.188 69.4291 63.9976 69.7909 63.9175C70.1583 63.84 70.5458 63.8557 70.9542 63.9655C71.1869 64.0279 71.404 64.1136 71.606 64.2227C71.8092 64.3261 71.9702 64.4302 72.0879 64.5348L71.6915 65.0954C71.5695 65.0077 71.4235 64.9169 71.2543 64.8223C71.0844 64.7284 70.9208 64.6597 70.7616 64.6174C69.8657 64.3766 69.263 64.8331 68.9548 65.9869C68.8075 66.5386 68.8019 66.9907 68.9384 67.3444C69.0818 67.6937 69.3694 67.9264 69.8003 68.0418C70.0501 68.1093 70.2753 68.142 70.476 68.1414C70.6824 68.142 70.8749 68.1263 71.0536 68.0954L70.8761 68.7606C70.7012 68.799 70.5156 68.8129 70.3175 68.8022C70.1237 68.799 69.8966 68.7625 69.6355 68.6925ZM73.4846 66.3173C73.4607 66.4081 73.4229 66.526 73.3719 66.671C73.3266 66.8173 73.287 66.9434 73.2524 67.05L73.2864 67.0588C73.3329 67.0229 73.4015 66.9712 73.4921 66.9043C73.5827 66.8369 73.6739 66.77 73.7645 66.7032C73.8627 66.6319 73.9451 66.5746 74.0112 66.5317L75.8784 65.3791L76.7548 65.6143L74.3867 67.0714L75.6608 70.219L74.7586 69.9769L73.7463 67.4201L73.1064 67.7328L72.6572 69.4125L71.9174 69.2133L73.6494 62.7334L74.3899 62.9322L73.4846 66.3173ZM83.5892 72.3483L82.6958 72.108L80.7977 66.1792L80.7637 66.1698C80.7222 66.3722 80.67 66.6231 80.6083 66.9232C80.546 67.2234 80.473 67.5298 80.39 67.8425L79.4803 71.2448L78.7737 71.0551L80.4019 64.9667L81.2865 65.2044L83.1809 71.1143L83.2148 71.1231C83.2331 71.0311 83.2614 70.8924 83.2985 70.707C83.3413 70.5235 83.3859 70.3224 83.4325 70.1036C83.4847 69.8861 83.5351 69.6862 83.5835 69.5046L84.5027 66.0683L85.2174 66.2599L83.5892 72.3483ZM88.1416 68.5809C88.5329 68.6855 88.845 68.8608 89.0771 69.1061C89.315 69.3526 89.466 69.6521 89.5301 70.0046C89.6012 70.3527 89.5811 70.7341 89.4704 71.149L89.3496 71.6011L86.2271 70.7625C86.1001 71.2827 86.1246 71.7127 86.3014 72.0525C86.4851 72.3886 86.8041 72.6175 87.2577 72.7392C87.5471 72.8167 87.8094 72.8596 88.0441 72.8678C88.2863 72.8722 88.5399 72.8552 88.8054 72.8167L88.6298 73.4731C88.37 73.5128 88.1209 73.5254 87.8818 73.5097C87.6408 73.5002 87.3646 73.4536 87.0526 73.3697C86.6216 73.2537 86.2624 73.0626 85.9749 72.7966C85.693 72.5324 85.5049 72.2013 85.4105 71.8041C85.3231 71.4031 85.347 70.9498 85.4822 70.4441C85.6162 69.9434 85.8132 69.5368 86.0736 69.2228C86.3391 68.91 86.6487 68.6975 87.0004 68.5853C87.3583 68.4743 87.739 68.4724 88.1416 68.5809ZM87.9692 69.1925C87.6119 69.0966 87.2967 69.137 87.0249 69.3135C86.76 69.4863 86.5524 69.7719 86.4033 70.1704L88.7261 70.794C88.8236 70.4056 88.8167 70.0689 88.7047 69.7827C88.594 69.4914 88.3492 69.2946 87.9692 69.1925ZM91.4773 71.9624L90.5003 69.3054L91.3508 69.5342L92.0649 71.5714L93.6906 70.1622L94.533 70.3886L92.3619 72.2001L93.3962 74.9813L92.5456 74.7531L91.7912 72.5948L90.0441 74.0816L89.2017 73.8552L91.4773 71.9624ZM95.9392 75.098C96.053 75.1282 96.1713 75.1509 96.2953 75.1661C96.4205 75.1755 96.5224 75.1787 96.6023 75.1755L96.45 75.7468C96.3594 75.7651 96.238 75.7657 96.0845 75.7493C95.9291 75.7379 95.7838 75.714 95.6479 75.6774C95.4094 75.6137 95.1987 75.5141 95.0156 75.3798C94.8401 75.2411 94.7174 75.0532 94.6469 74.8149C94.5771 74.5765 94.5915 74.2726 94.6903 73.9031L95.4013 71.2429L94.7551 71.0696L94.8508 70.7114L95.5856 70.5891L96.143 69.6969L96.5859 69.8154L96.3053 70.8646L97.624 71.2184L97.4692 71.7984L96.1499 71.4441L95.4434 74.0872C95.3692 74.3659 95.3786 74.591 95.473 74.7625C95.5743 74.9296 95.7297 75.0412 95.9392 75.098ZM101.223 76.5166C101.337 76.5475 101.455 76.5702 101.579 76.5847C101.705 76.5942 101.807 76.5973 101.886 76.5942L101.734 77.1654C101.644 77.1844 101.522 77.185 101.369 77.168C101.213 77.1572 101.068 77.1333 100.932 77.0967C100.694 77.0324 100.483 76.9334 100.3 76.7991C100.124 76.6604 100.002 76.4719 99.931 76.2342C99.8612 75.9958 99.8757 75.6919 99.9745 75.3224L100.685 72.6623L100.039 72.4882L100.135 72.1301L100.87 72.0078L101.427 71.1156L101.87 71.2347L101.589 72.2833L102.908 72.6377L102.753 73.2171L101.434 72.8634L100.728 75.5065C100.653 75.7852 100.663 76.0097 100.757 76.1812C100.858 76.3489 101.014 76.4605 101.223 76.5166ZM107.211 76.2329C107.009 76.9889 106.66 77.5229 106.163 77.8344C105.672 78.1472 105.101 78.2159 104.448 78.0406C104.046 77.9328 103.71 77.7449 103.441 77.4775C103.179 77.2064 103.004 76.8704 102.917 76.4693C102.831 76.062 102.856 75.6055 102.991 75.0999C103.194 74.3439 103.539 73.8123 104.029 73.5053C104.518 73.1976 105.089 73.132 105.741 73.3066C106.155 73.4182 106.493 73.6093 106.755 73.8811C107.024 74.1478 107.199 74.4813 107.281 74.8811C107.37 75.2764 107.347 75.7272 107.211 76.2329ZM103.766 75.3079C103.621 75.8477 103.612 76.3054 103.736 76.6799C103.868 77.0501 104.166 77.2979 104.632 77.4227C105.091 77.5463 105.471 77.4807 105.769 77.226C106.07 76.9656 106.293 76.5652 106.437 76.0255C106.582 75.4851 106.587 75.033 106.453 74.6679C106.32 74.3029 106.02 74.0582 105.556 73.9334C105.091 73.8085 104.712 73.8716 104.42 74.1219C104.128 74.3722 103.91 74.7676 103.766 75.3079ZM111.801 80.0154C111.398 79.907 111.06 79.7279 110.787 79.4782C110.519 79.2291 110.34 78.9069 110.251 78.5116C110.168 78.1175 110.199 77.6509 110.343 77.1106C110.494 76.5482 110.71 76.1156 110.991 75.8136C111.273 75.511 111.594 75.3205 111.956 75.2411C112.323 75.1629 112.711 75.1787 113.12 75.2884C113.352 75.3508 113.57 75.4366 113.771 75.5456C113.975 75.649 114.135 75.7531 114.253 75.8577L113.857 76.4183C113.734 76.3306 113.588 76.2398 113.419 76.1453C113.25 76.0513 113.086 75.9832 112.927 75.9403C112.031 75.6995 111.429 76.156 111.12 77.3105C110.972 77.8615 110.967 78.3143 111.103 78.6673C111.247 79.0167 111.535 79.2493 111.966 79.3653C112.216 79.4322 112.44 79.465 112.642 79.4643C112.848 79.465 113.04 79.4498 113.219 79.4183L113.041 80.0835C112.867 80.122 112.681 80.1358 112.483 80.1251C112.289 80.122 112.062 80.0854 111.801 80.0154ZM118.661 79.3073C118.458 80.0633 118.109 80.5974 117.612 80.9089C117.121 81.2216 116.55 81.2903 115.897 81.115C115.495 81.0072 115.159 80.8193 114.889 80.5526C114.628 80.2808 114.453 79.9448 114.366 79.5438C114.28 79.1365 114.305 78.6806 114.44 78.1743C114.642 77.4183 114.988 76.8868 115.478 76.5797C115.967 76.272 116.538 76.2064 117.19 76.3817C117.604 76.4927 117.942 76.6837 118.204 76.9555C118.473 77.2222 118.649 77.5557 118.73 77.9555C118.818 78.3508 118.796 78.8016 118.661 79.3073ZM115.215 78.3824C115.07 78.9221 115.061 79.3798 115.185 79.7544C115.317 80.1251 115.615 80.3723 116.08 80.4977C116.54 80.6207 116.92 80.5551 117.219 80.3004C117.519 80.04 117.741 79.6396 117.886 79.0999C118.03 78.5595 118.036 78.1074 117.902 77.7424C117.769 77.3773 117.47 77.1327 117.005 77.0078C116.54 76.883 116.161 76.946 115.869 77.1963C115.577 77.4473 115.359 77.842 115.215 78.3824ZM122.673 77.854C123.218 78.0003 123.594 78.2443 123.8 78.586C124.008 78.9221 124.033 79.3855 123.875 79.9769L123.079 82.9524L122.339 82.7538L123.121 79.8294C123.317 79.0961 123.075 78.6377 122.394 78.4549C121.889 78.3193 121.502 78.3678 121.234 78.6005C120.964 78.8325 120.759 79.2165 120.616 79.7506L119.982 82.1207L119.234 81.9196L120.455 77.3496L121.059 77.5116L121.003 78.1642L121.046 78.1755C121.258 77.9763 121.509 77.8546 121.8 77.8111C122.093 77.7619 122.384 77.7764 122.673 77.854ZM126.157 83.2128C126.271 83.243 126.389 83.2657 126.513 83.2809C126.638 83.2897 126.741 83.2929 126.82 83.2903L126.668 83.8616C126.578 83.8799 126.456 83.8805 126.302 83.8635C126.147 83.8528 126.001 83.8288 125.865 83.7922C125.627 83.7279 125.416 83.6289 125.234 83.4946C125.058 83.3559 124.935 83.1674 124.865 82.9297C124.795 82.6913 124.809 82.3874 124.908 82.0179L125.619 79.3578L124.973 79.1844L125.068 78.8262L125.803 78.7033L126.361 77.8117L126.803 77.9303L126.523 78.9788L127.842 79.3332L127.687 79.9126L126.368 79.5589L125.661 82.202C125.587 82.4807 125.597 82.7058 125.691 82.8767C125.792 83.0444 125.947 83.156 126.157 83.2128ZM129.63 77.9763C129.743 78.0072 129.832 78.0734 129.896 78.1755C129.967 78.2739 129.98 78.4057 129.936 78.5702C129.894 78.7298 129.816 78.837 129.704 78.8918C129.598 78.9486 129.488 78.9618 129.375 78.9315C129.25 78.8981 129.155 78.83 129.092 78.7272C129.028 78.6251 129.017 78.4946 129.06 78.3351C129.104 78.1705 129.178 78.062 129.283 78.0116C129.39 77.9549 129.505 77.9429 129.63 77.9763ZM129.538 79.7884L128.316 84.3584L127.567 84.1579L128.789 79.5873L129.538 79.7884ZM133.2 80.6806C133.745 80.8269 134.12 81.0709 134.327 81.4126C134.534 81.7487 134.559 82.2121 134.402 82.8036L133.606 85.7796L132.866 85.5804L133.648 82.656C133.844 81.9227 133.601 81.465 132.921 81.2821C132.416 81.1466 132.029 81.1951 131.76 81.4271C131.491 81.6598 131.285 82.0432 131.143 82.5772L130.509 84.948L129.76 84.7468L130.982 80.1762L131.586 80.3389L131.53 80.9908L131.573 81.0022C131.784 80.8029 132.035 80.6819 132.327 80.6384C132.62 80.5885 132.911 80.603 133.2 80.6806ZM140.053 82.6125L138.831 87.1825L138.219 87.018L138.27 86.383L138.236 86.3736C138.024 86.5728 137.773 86.6945 137.482 86.738C137.192 86.7759 136.9 86.7551 136.605 86.6762C136.054 86.5281 135.676 86.2866 135.467 85.9505C135.261 85.6088 135.235 85.1478 135.391 84.5678L136.19 81.5753L136.948 81.7783L136.161 84.7204C135.967 85.448 136.207 85.902 136.882 86.0835C137.387 86.2191 137.773 86.1706 138.042 85.9379C138.317 85.7071 138.526 85.3244 138.668 84.7903L139.304 82.4114L140.053 82.6125ZM143.284 83.3887C143.676 83.494 143.988 83.6693 144.22 83.9139C144.458 84.1611 144.609 84.4606 144.673 84.8124C144.744 85.1605 144.724 85.5419 144.613 85.9568L144.492 86.4089L141.37 85.5703C141.243 86.0911 141.268 86.5211 141.444 86.861C141.629 87.1964 141.947 87.4253 142.401 87.547C142.69 87.6245 142.952 87.668 143.187 87.6762C143.429 87.68 143.683 87.663 143.949 87.6245L143.773 88.2809C143.513 88.3213 143.264 88.3332 143.025 88.3175C142.784 88.308 142.508 88.2614 142.196 88.1775C141.765 88.0615 141.405 87.8711 141.118 87.605C140.836 87.3402 140.648 87.0092 140.553 86.6126C140.466 86.2109 140.49 85.7576 140.626 85.2519C140.759 84.7513 140.956 84.3446 141.216 84.0306C141.483 83.7178 141.791 83.5053 142.144 83.3931C142.502 83.2821 142.882 83.2809 143.284 83.3887ZM143.112 84.0003C142.755 83.9045 142.44 83.9448 142.168 84.1214C141.903 84.2941 141.696 84.5797 141.547 84.9782L143.869 85.6018C143.967 85.2141 143.959 84.8767 143.847 84.5911C143.737 84.2992 143.492 84.1024 143.112 84.0003ZM145.094 88.3711C145.15 88.1605 145.24 88.0262 145.365 87.9688C145.49 87.9108 145.624 87.9007 145.765 87.9392C145.913 87.9783 146.026 88.0546 146.105 88.1674C146.19 88.2815 146.205 88.4436 146.149 88.6542C146.094 88.8585 146 88.9921 145.868 89.0539C145.742 89.1176 145.605 89.1296 145.457 89.0899C145.316 89.052 145.206 88.9739 145.128 88.8553C145.05 88.7368 145.039 88.5754 145.094 88.3711Z" fill="#29292B"/>
<path d="M27.9883 83.7399C27.8439 84.2796 27.5357 84.6479 27.0638 84.844C26.5919 85.04 26.0241 85.0495 25.3605 84.8711C25.0202 84.7796 24.7123 84.6693 24.4367 84.5407C24.1611 84.412 23.9391 84.2759 23.7705 84.1334L23.9666 83.4001C24.1465 83.5457 24.3768 83.6964 24.6577 83.8509C24.9442 84.0066 25.2491 84.1283 25.5724 84.2153C26.0262 84.337 26.39 84.3402 26.664 84.2248C26.9437 84.1113 27.1238 83.9038 27.2043 83.6025C27.2575 83.4032 27.2598 83.2241 27.2112 83.0652C27.1626 82.9057 27.0486 82.7412 26.8691 82.5709C26.6968 82.3969 26.4438 82.1951 26.1101 81.965C25.6441 81.639 25.3143 81.3036 25.1207 80.9593C24.9327 80.6163 24.9018 80.209 25.028 79.7374C25.1146 79.4133 25.2706 79.1598 25.4958 78.9763C25.7226 78.7878 25.9973 78.6692 26.3201 78.622C26.6484 78.5759 27.0026 78.6043 27.3826 78.7065C27.7173 78.796 28.0152 78.9095 28.2764 79.0469C28.5376 79.1838 28.768 79.3345 28.9675 79.4978L28.5537 80.0898C28.3682 79.9429 28.159 79.8042 27.9262 79.6749C27.699 79.5469 27.4521 79.4467 27.1855 79.3754C26.8055 79.2733 26.4971 79.279 26.2601 79.3918C26.0247 79.499 25.8713 79.6863 25.7999 79.9536C25.7452 80.1585 25.7421 80.3401 25.7907 80.4997C25.8394 80.6585 25.9456 80.8181 26.1096 80.9782C26.2735 81.1377 26.5033 81.3244 26.7989 81.5381C27.1212 81.7645 27.3838 81.9877 27.5867 82.2065C27.7967 82.4215 27.936 82.6504 28.0046 82.8944C28.0788 83.1397 28.0734 83.4215 27.9883 83.7399ZM30.3387 85.5501C30.4521 85.5804 30.5706 85.6031 30.6943 85.6182C30.8195 85.6271 30.922 85.6302 31.0018 85.6277L30.8491 86.1989C30.759 86.2172 30.6372 86.2179 30.4837 86.2015C30.3287 86.1901 30.183 86.1662 30.0469 86.1296C29.8087 86.0659 29.5981 85.9663 29.4152 85.832C29.2395 85.6933 29.1166 85.5047 29.0465 85.267C28.9764 85.0287 28.9908 84.7248 29.0896 84.3553L29.8009 81.6951L29.1542 81.5217L29.25 81.1636L29.9849 81.0406L30.5426 80.1491L30.985 80.2676L30.7046 81.3162L32.0232 81.6705L31.8683 82.2506L30.5495 81.8963L29.8428 84.5394C29.7684 84.8181 29.7782 85.0432 29.8721 85.2147C29.9733 85.3818 30.1288 85.4934 30.3387 85.5501ZM34.7543 82.3124C35.1457 82.4177 35.4575 82.593 35.6899 82.8383C35.9279 83.0848 36.0788 83.3843 36.1427 83.7361C36.2137 84.0842 36.1939 84.4656 36.0829 84.8812L35.9621 85.3326L32.8397 84.4946C32.7128 85.0148 32.7376 85.4448 32.9142 85.7847C33.098 86.1201 33.4168 86.349 33.8705 86.4707C34.1598 86.5489 34.4219 86.5918 34.6568 86.6C34.8988 86.6037 35.1526 86.5867 35.4182 86.5483L35.2427 87.2053C34.9828 87.245 34.7333 87.257 34.4943 87.2418C34.2537 87.2317 33.9775 87.1851 33.6655 87.1012C33.2345 86.9858 32.8752 86.7948 32.5876 86.5287C32.3058 86.2639 32.1176 85.9335 32.0232 85.5363C31.9359 85.1353 31.9599 84.6813 32.0951 84.1756C32.2288 83.6756 32.4258 83.2683 32.6861 82.9543C32.952 82.6422 33.2611 82.4297 33.6134 82.3168C33.9713 82.2058 34.3516 82.2046 34.7543 82.3124ZM34.5817 82.924C34.2243 82.8282 33.9096 82.8685 33.6375 83.0451C33.3725 83.2178 33.1654 83.5035 33.0163 83.9019L35.3389 84.5255C35.4366 84.1378 35.4295 83.8004 35.3175 83.5148C35.207 83.2229 34.9617 83.0262 34.5817 82.924ZM39.965 83.7115C40.5265 83.8629 40.925 84.18 41.1604 84.6636C41.4016 85.1485 41.4165 85.786 41.2053 86.576C40.997 87.3553 40.666 87.8995 40.2121 88.2103C39.7639 88.5224 39.2562 88.6025 38.689 88.4505C38.3373 88.356 38.0627 88.2122 37.8651 88.0186C37.6747 87.8213 37.5378 87.617 37.4545 87.4058L37.4034 87.3925C37.389 87.4921 37.3676 87.617 37.3395 87.7683C37.3113 87.919 37.2828 88.0483 37.2539 88.1561L36.7524 90.0319L36.0037 89.8314L37.7727 83.2147L38.3853 83.3792L38.3209 84.0287L38.355 84.0381C38.5443 83.8755 38.7678 83.7557 39.0255 83.6788C39.2831 83.6018 39.5963 83.6125 39.965 83.7115ZM39.6602 84.3061C39.195 84.1813 38.8312 84.2235 38.5684 84.4335C38.3113 84.6447 38.1057 85.0161 37.9515 85.547L37.9127 85.692C37.7622 86.2551 37.7368 86.7141 37.8362 87.0697C37.9428 87.4215 38.2457 87.6643 38.7448 87.7979C39.0227 87.873 39.2701 87.8572 39.487 87.7507C39.7095 87.646 39.8983 87.4745 40.0533 87.2355C40.2154 86.9928 40.3421 86.7008 40.4333 86.3597C40.5731 85.837 40.5827 85.3919 40.4621 85.0243C40.3472 84.6586 40.0799 84.419 39.6602 84.3061ZM46.2922 90.4007L45.5606 90.204L46.6982 85.9493C46.7635 85.7052 46.8188 85.5098 46.8639 85.3635C46.9091 85.2172 46.9587 85.0659 47.0125 84.9095C46.8975 84.9764 46.7947 85.0312 46.7043 85.0741C46.6139 85.1163 46.499 85.1712 46.3597 85.2374L45.5717 85.5924L45.3149 84.9839L47.2989 84.146L47.9199 84.3124L46.2922 90.4007ZM55.6518 90.4556C55.4497 91.2116 55.1003 91.7456 54.6037 92.0571C54.1127 92.3699 53.5411 92.4386 52.8888 92.2633C52.4861 92.1555 52.1503 91.9676 51.8813 91.7003C51.6195 91.4291 51.445 91.0931 51.3576 90.6914C51.2719 90.2847 51.2967 89.8282 51.4319 89.3225C51.6341 88.5666 51.9798 88.035 52.4693 87.728C52.9587 87.4203 53.5295 87.3547 54.1818 87.5293C54.5959 87.6409 54.9338 87.832 55.1956 88.1031C55.4646 88.3705 55.6399 88.704 55.7215 89.1038C55.8103 89.4991 55.7871 89.9499 55.6518 90.4556ZM52.2061 89.5306C52.0618 90.0703 52.0519 90.5281 52.1767 90.9026C52.3086 91.2728 52.6072 91.5205 53.0722 91.6454C53.5317 91.769 53.9109 91.7034 54.2101 91.4487C54.5107 91.1883 54.7332 90.7879 54.8776 90.2482C55.022 89.7078 55.0274 89.2557 54.894 88.8906C54.7605 88.5256 54.4612 88.2809 53.9961 88.1561C53.5311 88.0312 53.1525 88.0937 52.8606 88.3446C52.5687 88.5949 52.3505 88.9903 52.2061 89.5306ZM59.3934 89.6422L58.2449 89.3333L57.178 93.3238L56.4293 93.1227L57.4962 89.1328L56.6965 88.9178L56.7899 88.5678L57.6581 88.5268L57.7287 88.2626C57.8868 87.6718 58.1305 87.2828 58.4598 87.0974C58.7906 86.9058 59.1885 86.873 59.6536 86.9978C59.8352 87.0464 59.9951 87.1075 60.1334 87.1813C60.2789 87.2507 60.4003 87.32 60.4974 87.3887L60.1444 87.9247C60.0613 87.8717 59.9639 87.815 59.8524 87.7544C59.7409 87.6945 59.6228 87.6473 59.498 87.6138C59.2484 87.547 59.0385 87.5817 58.8681 87.7185C58.7049 87.8515 58.5754 88.0974 58.4797 88.4556L58.3999 88.7538L59.5484 89.0621L59.3934 89.6422ZM63.9747 91.1466C64.5988 91.3137 65.053 91.6038 65.338 92.0149C65.623 92.4266 65.6897 92.9165 65.5381 93.4853C65.3689 94.1164 65.0348 94.5597 64.5346 94.815C64.042 95.0666 63.4387 95.0962 62.7237 94.9046C62.4118 94.8207 62.1245 94.7129 61.8617 94.5817C61.6047 94.4518 61.397 94.3075 61.2387 94.1492L61.4279 93.4417C61.5986 93.6214 61.8188 93.7873 62.0883 93.9386C62.365 94.0861 62.6366 94.1959 62.9032 94.2671C63.3512 94.3875 63.7394 94.3793 64.0678 94.2419C64.4038 94.1006 64.6315 93.8056 64.7517 93.3566C64.858 92.9581 64.8171 92.6214 64.6296 92.3459C64.4434 92.0641 64.0867 91.8528 63.5595 91.711C63.4003 91.6681 63.2153 91.634 63.0033 91.6076C62.7916 91.5811 62.6195 91.5653 62.4872 91.5603L62.1766 91.221L63.1744 88.4089L66.2201 89.2273L66.0383 89.9089L63.6306 89.2627L63.014 90.989C63.1147 90.9978 63.2506 91.013 63.4211 91.0344C63.5915 91.0559 63.7765 91.0931 63.9747 91.1466Z" fill="#29292B"/>
<path d="M129.606 106.249C130.395 106.461 130.924 106.78 131.193 107.205C131.468 107.632 131.528 108.136 131.373 108.716C131.28 109.062 131.119 109.369 130.889 109.637C130.662 109.898 130.346 110.076 129.945 110.169C129.55 110.258 129.055 110.222 128.46 110.063L127.856 109.901L127.256 112.143L126.167 111.85L127.795 105.763L129.606 106.249ZM129.297 107.135L128.642 106.959L128.097 108.997L128.59 109.129C129.033 109.248 129.394 109.26 129.675 109.164C129.963 109.065 130.157 108.831 130.256 108.461C130.345 108.126 130.313 107.849 130.158 107.631C130.004 107.413 129.717 107.248 129.297 107.135ZM135.007 109.18C135.081 109.2 135.159 109.224 135.243 109.253C135.332 109.282 135.406 109.314 135.464 109.348L135.103 110.321C135.05 110.294 134.984 110.267 134.906 110.24C134.83 110.207 134.76 110.183 134.697 110.166C134.471 110.105 134.245 110.096 134.021 110.14C133.798 110.177 133.598 110.279 133.42 110.444C133.249 110.606 133.124 110.834 133.045 111.13L132.404 113.526L131.332 113.238L132.568 108.616L133.393 108.838L133.332 109.681L133.383 109.694C133.585 109.487 133.827 109.329 134.111 109.222C134.396 109.11 134.695 109.096 135.007 109.18ZM138.018 109.988C138.637 110.154 139.074 110.47 139.333 110.935C139.597 111.403 139.641 111.966 139.465 112.625L139.319 113.171L136.273 112.353C136.172 112.777 136.201 113.135 136.36 113.427C136.521 113.714 136.796 113.91 137.188 114.015C137.483 114.094 137.757 114.137 138.011 114.144C138.265 114.146 138.533 114.123 138.813 114.077L138.582 114.938C138.326 114.985 138.07 115.001 137.812 114.987C137.555 114.973 137.256 114.92 136.916 114.828C136.467 114.708 136.09 114.516 135.785 114.25C135.486 113.982 135.284 113.644 135.179 113.238C135.081 112.834 135.101 112.371 135.242 111.847C135.452 111.057 135.809 110.507 136.312 110.197C136.814 109.888 137.383 109.818 138.018 109.988ZM137.806 110.782C137.517 110.703 137.256 110.734 137.025 110.873C136.8 111.008 136.625 111.253 136.499 111.61L138.482 112.142C138.561 111.822 138.549 111.538 138.445 111.291C138.348 111.04 138.135 110.87 137.806 110.782ZM140.746 115.765L140.229 110.673L141.36 110.977L141.566 113.893C141.578 114.073 141.581 114.268 141.573 114.48C141.571 114.692 141.557 114.869 141.532 115.008L141.566 115.017C141.621 114.879 141.7 114.721 141.802 114.541C141.907 114.356 142.009 114.189 142.11 114.039L143.743 111.617L144.874 111.921L141.886 116.072L140.746 115.765ZM146.575 110.468C146.739 110.512 146.867 110.592 146.958 110.707C147.055 110.819 147.076 110.98 147.02 111.19C146.964 111.401 146.864 111.533 146.723 111.586C146.586 111.64 146.436 111.646 146.272 111.602C146.107 111.558 145.977 111.477 145.88 111.36C145.79 111.244 145.773 111.081 145.829 110.871C145.885 110.66 145.98 110.531 146.115 110.482C146.257 110.428 146.41 110.424 146.575 110.468ZM146.634 112.394L145.399 117.015L144.326 116.727L145.562 112.106L146.634 112.394ZM151.507 116.169C151.302 116.937 150.945 117.478 150.435 117.792C149.927 118.1 149.333 118.163 148.652 117.98C148.233 117.867 147.884 117.673 147.604 117.397C147.326 117.122 147.141 116.779 147.049 116.371C146.958 115.963 146.98 115.502 147.117 114.991C147.322 114.224 147.675 113.688 148.176 113.383C148.684 113.075 149.278 113.012 149.959 113.195C150.384 113.309 150.737 113.504 151.015 113.78C151.295 114.05 151.482 114.39 151.573 114.798C151.666 115.201 151.644 115.658 151.507 116.169ZM148.215 115.285C148.084 115.774 148.068 116.175 148.167 116.488C148.271 116.803 148.517 117.011 148.902 117.115C149.288 117.219 149.601 117.159 149.843 116.938C150.09 116.718 150.279 116.364 150.41 115.875C150.54 115.386 150.553 114.987 150.447 114.679C150.347 114.371 150.101 114.165 149.709 114.06C149.329 113.958 149.017 114.014 148.771 114.229C148.531 114.444 148.345 114.797 148.215 115.285ZM157.323 115.264L156.088 119.885L155.245 119.659L155.26 119.024L155.209 119.01C154.992 119.207 154.739 119.325 154.449 119.363C154.165 119.403 153.879 119.383 153.589 119.306C153.073 119.167 152.703 118.925 152.479 118.579C152.262 118.234 152.232 117.765 152.39 117.175L153.197 114.156L154.269 114.444L153.519 117.249C153.335 117.937 153.527 118.357 154.094 118.509C154.525 118.625 154.856 118.57 155.086 118.346C155.323 118.117 155.511 117.747 155.647 117.236L156.251 114.976L157.323 115.264ZM160.951 119.757C160.827 120.223 160.565 120.533 160.164 120.688C159.772 120.838 159.266 120.83 158.648 120.664C158.325 120.577 158.053 120.48 157.832 120.372C157.618 120.266 157.416 120.135 157.226 119.981L157.47 119.069C157.667 119.238 157.893 119.395 158.145 119.542C158.403 119.691 158.654 119.798 158.899 119.864C159.194 119.943 159.418 119.954 159.573 119.898C159.728 119.842 159.826 119.738 159.867 119.584C159.891 119.494 159.887 119.407 159.854 119.325C159.823 119.238 159.742 119.13 159.611 119.004C159.487 118.879 159.294 118.714 159.033 118.511C158.768 118.318 158.552 118.135 158.386 117.962C158.226 117.785 158.117 117.601 158.059 117.408C158.007 117.217 158.016 116.992 158.086 116.73C158.196 116.315 158.442 116.046 158.821 115.922C159.208 115.794 159.674 115.804 160.219 115.95C160.502 116.026 160.761 116.126 160.995 116.25C161.235 116.376 161.468 116.529 161.693 116.712L161.14 117.413C160.949 117.264 160.76 117.131 160.572 117.014C160.385 116.896 160.183 116.809 159.967 116.751C159.497 116.625 159.226 116.695 159.155 116.962C159.129 117.058 159.135 117.149 159.174 117.232C159.218 117.317 159.302 117.419 159.429 117.538C159.562 117.654 159.754 117.803 160.003 117.985C160.246 118.166 160.451 118.343 160.617 118.516C160.785 118.683 160.9 118.866 160.963 119.065C161.025 119.265 161.021 119.495 160.951 119.757Z" fill="#0C41FF"/>
<path d="M167.932 108.379L126.001 97.1189C125.162 96.8936 124.299 97.3926 124.074 98.2335L119.352 115.896C119.127 116.737 119.625 117.601 120.464 117.826L162.396 129.086C163.235 129.312 164.097 128.813 164.322 127.972L169.044 110.31C169.269 109.469 168.771 108.604 167.932 108.379Z" stroke="#0C41FF"/>
<path d="M202.653 117.377L176.521 110.36C175.514 110.089 174.48 110.688 174.21 111.697L169.488 129.359C169.218 130.368 169.815 131.406 170.822 131.676L196.953 138.693C197.96 138.964 198.995 138.365 199.265 137.356L203.987 119.694C204.257 118.685 203.659 117.647 202.653 117.377Z" fill="#0C41FF"/>
<path d="M181.77 126.782L180.418 126.419L178.818 120.872L178.785 120.863C178.734 121.124 178.674 121.403 178.606 121.702C178.545 121.996 178.479 122.292 178.405 122.589L177.585 125.658L176.606 125.396L178.234 119.308L179.578 119.669L181.178 125.18L181.204 125.187C181.253 124.956 181.311 124.692 181.379 124.393C181.447 124.094 181.515 123.805 181.584 123.525L182.412 120.429L183.398 120.695L181.77 126.782ZM186.364 122.972C186.982 123.137 187.42 123.453 187.679 123.919C187.943 124.386 187.987 124.949 187.811 125.608L187.665 126.154L184.619 125.336C184.518 125.76 184.547 126.118 184.706 126.41C184.866 126.697 185.142 126.893 185.533 126.998C185.828 127.077 186.103 127.12 186.356 127.127C186.611 127.129 186.878 127.107 187.158 127.06L186.928 127.921C186.672 127.968 186.415 127.984 186.158 127.97C185.901 127.956 185.601 127.903 185.262 127.811C184.813 127.691 184.436 127.498 184.13 127.233C183.831 126.964 183.63 126.627 183.525 126.221C183.427 125.817 183.447 125.353 183.587 124.83C183.798 124.04 184.155 123.49 184.658 123.18C185.16 122.871 185.728 122.801 186.364 122.972ZM186.152 123.764C185.862 123.687 185.602 123.717 185.37 123.856C185.146 123.991 184.971 124.236 184.845 124.593L186.827 125.125C186.907 124.805 186.895 124.521 186.79 124.274C186.693 124.023 186.481 123.852 186.152 123.764ZM189.655 126.368L188.736 123.7L189.953 124.026L190.537 125.865L191.961 124.566L193.177 124.892L191.033 126.738L192.018 129.535L190.802 129.207L190.17 127.238L188.641 128.627L187.424 128.301L189.655 126.368ZM194.783 129.445C194.913 129.48 195.044 129.503 195.175 129.514C195.313 129.521 195.44 129.521 195.557 129.516L195.343 130.318C195.216 130.338 195.057 130.341 194.867 130.327C194.674 130.318 194.479 130.286 194.28 130.233C194.019 130.163 193.793 130.057 193.6 129.914C193.409 129.765 193.279 129.566 193.213 129.316C193.145 129.066 193.163 128.748 193.267 128.362L193.91 125.957L193.289 125.791L193.414 125.322L194.195 125.129L194.797 124.24L195.47 124.421L195.198 125.435L196.509 125.787L196.292 126.597L194.982 126.245L194.341 128.641C194.283 128.858 194.297 129.035 194.382 129.173C194.468 129.306 194.601 129.397 194.783 129.445Z" fill="white"/>
<path d="M228.546 52.1989L38.9429 1.28329C37.097 0.78759 35.1996 1.88546 34.705 3.73545L10.28 95.0911C9.78541 96.9411 10.8809 98.8426 12.7268 99.3383L202.33 150.254C204.176 150.75 206.073 149.652 206.568 147.802L230.993 56.4462C231.487 54.5962 230.392 52.6946 228.546 52.1989Z" stroke="#E4E4E4"/>
<path d="M83.485 134.333L7.52232 113.934C6.51545 113.664 5.48051 114.262 5.21072 115.271L0.488557 132.934C0.218766 133.943 0.816289 134.98 1.82316 135.25L77.7859 155.649C78.7927 155.919 79.8277 155.321 80.0975 154.312L84.8196 136.649C85.0894 135.64 84.4919 134.603 83.485 134.333Z" fill="#0C41FF"/>
<path d="M10.8763 123.324C11.6703 123.537 12.207 123.848 12.4865 124.258C12.7659 124.668 12.8296 125.158 12.6776 125.726C12.588 126.061 12.4271 126.356 12.1949 126.611C11.9699 126.861 11.6544 127.029 11.2485 127.115C10.8482 127.202 10.3446 127.165 9.73767 127.002L9.04008 126.815L8.40629 129.185L7.64062 128.979L9.26827 122.892L10.8763 123.324ZM10.6327 123.962L9.85847 123.754L9.21561 126.158L9.82814 126.322C10.4067 126.478 10.8628 126.5 11.1966 126.388C11.5303 126.277 11.7572 125.997 11.8773 125.548C11.9821 125.155 11.9356 124.829 11.7378 124.569C11.5398 124.308 11.1715 124.106 10.6327 123.962ZM15.6956 126.153C16.0869 126.258 16.3987 126.433 16.6311 126.678C16.8691 126.925 17.02 127.224 17.0839 127.576C17.155 127.924 17.135 128.306 17.0241 128.721L16.9033 129.173L13.7809 128.334C13.6539 128.854 13.6788 129.285 13.8554 129.625C14.0392 129.96 14.358 130.189 14.8117 130.311C15.101 130.389 15.3631 130.431 15.598 130.44C15.84 130.444 16.0939 130.427 16.3594 130.389L16.1839 131.045C15.924 131.085 15.6745 131.097 15.4355 131.081C15.1949 131.072 14.9187 131.025 14.6067 130.941C14.1757 130.825 13.8164 130.635 13.5289 130.369C13.247 130.104 13.0588 129.773 12.9643 129.377C12.8771 128.975 12.901 128.522 13.0363 128.016C13.1701 127.515 13.367 127.109 13.6273 126.795C13.8932 126.482 14.2023 126.269 14.5545 126.157C14.9125 126.046 15.2928 126.045 15.6956 126.153ZM15.5229 126.764C15.1656 126.668 14.8508 126.709 14.5786 126.885C14.3137 127.058 14.1066 127.344 13.9575 127.742L16.2802 128.366C16.3778 127.978 16.3706 127.641 16.2586 127.355C16.1482 127.063 15.9029 126.866 15.5229 126.764ZM20.8637 127.54C20.9487 127.563 21.038 127.593 21.1313 127.631C21.2319 127.664 21.3168 127.699 21.386 127.736L21.1077 128.401C21.0386 128.365 20.9601 128.328 20.8724 128.292C20.7904 128.258 20.7097 128.23 20.6302 128.209C20.3977 128.146 20.1618 128.153 19.9227 128.229C19.6851 128.3 19.4727 128.435 19.2856 128.634C19.1057 128.829 18.9748 129.08 18.8927 129.387L18.2407 131.826L17.492 131.625L18.7139 127.054L19.3264 127.219L19.1882 128.078L19.2222 128.086C19.4365 127.876 19.6843 127.711 19.9655 127.592C20.2466 127.472 20.546 127.455 20.8637 127.54ZM24.3131 132.104C24.1945 132.547 23.9404 132.839 23.5506 132.977C23.1609 133.117 22.6881 133.112 22.1322 132.962C21.8146 132.877 21.5464 132.778 21.3275 132.664C21.1143 132.552 20.9319 132.427 20.7804 132.288L20.9628 131.607C21.12 131.746 21.3155 131.89 21.5495 132.038C21.7907 132.182 22.0445 132.29 22.3111 132.361C22.6911 132.464 22.9822 132.477 23.1842 132.404C23.3878 132.325 23.5169 132.183 23.5717 131.978C23.6021 131.865 23.5982 131.754 23.5602 131.646C23.5221 131.538 23.433 131.417 23.2928 131.282C23.1583 131.148 22.9559 130.984 22.6857 130.79C22.4212 130.597 22.1992 130.416 22.0197 130.245C21.8403 130.075 21.7151 129.895 21.6442 129.706C21.5733 129.516 21.5713 129.296 21.6382 129.046C21.7415 128.66 21.9773 128.403 22.3455 128.276C22.7193 128.151 23.1615 128.158 23.672 128.295C23.9499 128.37 24.2004 128.467 24.4234 128.588C24.6536 128.704 24.8607 128.839 25.0448 128.993L24.6299 129.521C24.4583 129.389 24.2752 129.267 24.0806 129.154C23.8859 129.04 23.678 128.954 23.4568 128.895C23.1505 128.813 22.9015 128.801 22.7096 128.859C22.5249 128.912 22.4099 129.025 22.3642 129.196C22.3308 129.32 22.3388 129.438 22.3882 129.549C22.4392 129.654 22.5383 129.772 22.6857 129.903C22.8402 130.03 23.0469 130.189 23.3058 130.38C23.5662 130.566 23.7833 130.743 23.9571 130.912C24.1309 131.08 24.2496 131.261 24.3133 131.455C24.3785 131.643 24.3784 131.86 24.3131 132.104ZM29.6555 132.433C29.4533 133.189 29.104 133.723 28.6073 134.034C28.1163 134.347 27.5448 134.416 26.8925 134.24C26.4898 134.133 26.1539 133.945 25.885 133.677C25.6231 133.406 25.4486 133.07 25.3613 132.669C25.2756 132.262 25.3003 131.805 25.4356 131.3C25.6377 130.544 25.9835 130.012 26.473 129.705C26.9624 129.397 27.5332 129.332 28.1855 129.506C28.5996 129.618 28.9375 129.809 29.1993 130.081C29.4683 130.348 29.6436 130.681 29.7252 131.081C29.8139 131.476 29.7907 131.927 29.6555 132.433ZM26.2098 131.508C26.0654 132.047 26.0556 132.505 26.1803 132.88C26.3123 133.25 26.6108 133.498 27.0759 133.622C27.5353 133.746 27.9146 133.68 28.2137 133.426C28.5144 133.165 28.7369 132.765 28.8812 132.225C29.0256 131.685 29.0311 131.233 28.8976 130.868C28.7642 130.503 28.4649 130.258 27.9998 130.133C27.5347 130.008 27.1562 130.071 26.8643 130.322C26.5723 130.572 26.3542 130.967 26.2098 131.508ZM33.6685 130.979C34.213 131.126 34.5885 131.37 34.795 131.711C35.003 132.047 35.028 132.511 34.8699 133.102L34.0743 136.078L33.3342 135.879L34.1161 132.955C34.3122 132.221 34.0699 131.763 33.3892 131.58C32.8845 131.445 32.4976 131.493 32.2288 131.726C31.9599 131.958 31.7541 132.341 31.6113 132.876L30.9775 135.246L30.2288 135.045L31.4507 130.475L32.0547 130.637L31.9989 131.29L32.0415 131.301C32.2528 131.102 32.5041 130.98 32.7954 130.936C33.0882 130.887 33.3793 130.901 33.6685 130.979ZM38.4576 132.274C39.0134 132.424 39.392 132.657 39.5931 132.972C39.7944 133.288 39.8235 133.713 39.6807 134.248L38.8486 137.36L38.3041 137.214L38.3327 136.527L38.2987 136.518C38.0333 136.715 37.7741 136.843 37.521 136.903C37.2735 136.964 36.9569 136.943 36.5713 136.84C36.1572 136.728 35.8429 136.529 35.6284 136.239C35.4155 135.945 35.3713 135.564 35.4959 135.098C35.6175 134.643 35.8896 134.341 36.3123 134.193C36.7365 134.039 37.3232 134.05 38.0723 134.227L38.8533 134.409L38.9263 134.136C39.0281 133.755 39.0165 133.469 38.8915 133.278C38.7665 133.085 38.5537 132.949 38.2531 132.868C38.015 132.804 37.7782 132.78 37.5429 132.796C37.3091 132.807 37.0865 132.832 36.875 132.873L36.7957 132.249C37.0231 132.194 37.2828 132.166 37.5749 132.165C37.8684 132.159 38.1626 132.195 38.4576 132.274ZM38.0268 134.773C37.4535 134.643 37.035 134.628 36.7712 134.728C36.5131 134.829 36.3453 135.025 36.2678 135.314C36.1994 135.57 36.2259 135.778 36.3471 135.939C36.474 136.101 36.6594 136.215 36.9033 136.28C37.289 136.384 37.6375 136.365 37.949 136.223C38.262 136.075 38.4778 135.78 38.5963 135.336L38.7057 134.927L38.0268 134.773ZM41.0058 137.939L40.2571 137.738L41.9896 131.258L42.7383 131.459L41.0058 137.939Z" fill="white"/>
<path d="M48.5194 135.062L52.2266 136.057C52.5599 136.146 52.6185 136.596 52.3203 136.768L49.97 138.128C49.7843 138.236 49.5476 138.172 49.4419 137.986L48.085 135.631C47.9112 135.332 48.186 134.972 48.5194 135.062Z" fill="white"/>
<path opacity="0.1" d="M63.1266 128.866L57.4277 150.183" stroke="white"/>
<path opacity="0.2" d="M63.7342 129.029L58.0352 150.346" stroke="black"/>
<path d="M75.4371 143.202L69.4181 138.104C69.3571 138.052 69.2835 138.019 69.2048 138.008C69.1262 137.997 69.0463 138.009 68.9739 138.042C68.9016 138.074 68.8399 138.127 68.7965 138.193C68.7525 138.26 68.7292 138.338 68.7279 138.417L68.6713 141.779L67.0437 144.717C67.0047 144.787 66.9865 144.866 66.9909 144.946C66.9953 145.025 67.0223 145.102 67.0683 145.166C67.1148 145.231 67.1784 145.282 67.252 145.311C67.3256 145.341 67.4061 145.349 67.4848 145.335L75.2401 143.936C75.3188 143.922 75.3911 143.886 75.4503 143.832C75.5088 143.778 75.5509 143.709 75.5711 143.631C75.5918 143.554 75.5899 143.473 75.5667 143.397C75.5428 143.321 75.4975 143.253 75.4371 143.202ZM68.2057 144.351L68.9104 143.079L71.5194 142.543L69.5269 140.772L69.5515 139.318L74.214 143.267L68.2057 144.351Z" fill="white"/>
<g filter="url(#filter0_d_338_223026)">
<path d="M149.417 98.7764L147.447 88.7139L156.492 93.6811L152.037 94.9762L149.417 98.7764Z" fill="black"/>
<path d="M149.417 98.7764L147.447 88.7139L156.492 93.6811L152.037 94.9762L149.417 98.7764Z" stroke="white"/>
</g>
<g filter="url(#filter1_d_338_223026)">
<path d="M155.234 100.037C155.234 99.3413 155.798 98.7764 156.493 98.7764H263.446C270.396 98.7764 276.029 104.423 276.029 111.387C276.029 118.352 270.396 123.997 263.446 123.997H170.334C161.994 123.997 155.234 117.222 155.234 108.865V100.037Z" fill="#12B76A"/>
<path d="M165.744 108.786V107.833H171.41V108.786H169.126V115.17H168.025V108.786H165.744ZM173.645 111.902V115.17H172.576V107.833H173.63V110.562H173.698C173.827 110.267 174.024 110.032 174.288 109.857C174.553 109.683 174.898 109.595 175.325 109.595C175.702 109.595 176.031 109.673 176.312 109.828C176.595 109.984 176.814 110.215 176.969 110.523C177.127 110.829 177.205 111.211 177.205 111.67V115.17H176.136V111.799C176.136 111.395 176.032 111.082 175.825 110.86C175.618 110.636 175.33 110.523 174.96 110.523C174.707 110.523 174.482 110.577 174.281 110.685C174.083 110.792 173.927 110.95 173.813 111.158C173.701 111.363 173.645 111.611 173.645 111.902ZM178.631 115.17V109.667H179.7V115.17H178.631ZM179.171 108.818C178.986 108.818 178.826 108.756 178.692 108.632C178.561 108.505 178.496 108.354 178.496 108.18C178.496 108.004 178.561 107.853 178.692 107.729C178.826 107.602 178.986 107.539 179.171 107.539C179.357 107.539 179.515 107.602 179.647 107.729C179.78 107.853 179.847 108.004 179.847 108.18C179.847 108.354 179.78 108.505 179.647 108.632C179.515 108.756 179.357 108.818 179.171 108.818ZM185.252 111.011L184.284 111.182C184.243 111.058 184.179 110.94 184.091 110.828C184.005 110.716 183.888 110.624 183.741 110.552C183.593 110.48 183.408 110.445 183.186 110.445C182.884 110.445 182.631 110.513 182.429 110.649C182.226 110.782 182.125 110.955 182.125 111.168C182.125 111.352 182.193 111.5 182.329 111.612C182.464 111.724 182.684 111.817 182.986 111.888L183.858 112.089C184.364 112.206 184.74 112.386 184.988 112.63C185.236 112.873 185.36 113.19 185.36 113.579C185.36 113.909 185.264 114.202 185.074 114.46C184.886 114.716 184.622 114.917 184.284 115.062C183.948 115.208 183.558 115.281 183.115 115.281C182.5 115.281 181.999 115.149 181.61 114.887C181.222 114.622 180.983 114.245 180.895 113.759L181.928 113.601C181.992 113.871 182.125 114.074 182.325 114.213C182.525 114.349 182.786 114.417 183.108 114.417C183.458 114.417 183.738 114.344 183.948 114.199C184.158 114.051 184.262 113.871 184.262 113.658C184.262 113.486 184.198 113.342 184.07 113.224C183.943 113.107 183.749 113.019 183.486 112.96L182.557 112.755C182.045 112.638 181.666 112.452 181.42 112.196C181.178 111.941 181.056 111.617 181.056 111.226C181.056 110.9 181.147 110.617 181.328 110.373C181.509 110.129 181.759 109.939 182.078 109.803C182.397 109.665 182.764 109.595 183.176 109.595C183.769 109.595 184.236 109.724 184.577 109.982C184.918 110.238 185.143 110.581 185.252 111.011ZM190.268 107.833V115.17H189.199V107.833H190.268ZM194.019 115.281C193.504 115.281 193.054 115.163 192.671 114.926C192.288 114.69 191.989 114.359 191.777 113.934C191.565 113.509 191.459 113.012 191.459 112.443C191.459 111.873 191.565 111.373 191.777 110.946C191.989 110.518 192.288 110.187 192.671 109.95C193.054 109.714 193.504 109.595 194.019 109.595C194.534 109.595 194.983 109.714 195.367 109.95C195.75 110.187 196.048 110.518 196.26 110.946C196.472 111.373 196.578 111.873 196.578 112.443C196.578 113.012 196.472 113.509 196.26 113.934C196.048 114.359 195.75 114.69 195.367 114.926C194.983 115.163 194.534 115.281 194.019 115.281ZM194.022 114.381C194.356 114.381 194.632 114.293 194.851 114.117C195.071 113.939 195.233 113.704 195.338 113.41C195.445 113.117 195.499 112.793 195.499 112.44C195.499 112.089 195.445 111.766 195.338 111.473C195.233 111.177 195.071 110.939 194.851 110.76C194.632 110.581 194.356 110.491 194.022 110.491C193.686 110.491 193.407 110.581 193.186 110.76C192.966 110.939 192.803 111.177 192.696 111.473C192.591 111.766 192.539 112.089 192.539 112.44C192.539 112.793 192.591 113.117 192.696 113.41C192.803 113.704 192.966 113.939 193.186 114.117C193.407 114.293 193.686 114.381 194.022 114.381ZM200.084 115.281C199.569 115.281 199.12 115.163 198.736 114.926C198.352 114.69 198.055 114.359 197.843 113.934C197.631 113.509 197.524 113.012 197.524 112.443C197.524 111.873 197.631 111.373 197.843 110.946C198.055 110.518 198.352 110.187 198.736 109.95C199.12 109.714 199.569 109.595 200.084 109.595C200.598 109.595 201.048 109.714 201.431 109.95C201.815 110.187 202.113 110.518 202.325 110.946C202.537 111.373 202.643 111.873 202.643 112.443C202.643 113.012 202.537 113.509 202.325 113.934C202.113 114.359 201.815 114.69 201.431 114.926C201.048 115.163 200.598 115.281 200.084 115.281ZM200.088 114.381C200.421 114.381 200.698 114.293 200.917 114.117C201.136 113.939 201.298 113.704 201.403 113.41C201.51 113.117 201.564 112.793 201.564 112.44C201.564 112.089 201.51 111.766 201.403 111.473C201.298 111.177 201.136 110.939 200.917 110.76C200.698 110.581 200.421 110.491 200.088 110.491C199.752 110.491 199.473 110.581 199.251 110.76C199.032 110.939 198.868 111.177 198.761 111.473C198.656 111.766 198.604 112.089 198.604 112.44C198.604 112.793 198.656 113.117 198.761 113.41C198.868 113.704 199.032 113.939 199.251 114.117C199.473 114.293 199.752 114.381 200.088 114.381ZM204.819 113.303L204.812 111.996H204.998L207.186 109.667H208.466L205.971 112.318H205.803L204.819 113.303ZM203.837 115.17V107.833H204.905V115.17H203.837ZM207.304 115.17L205.338 112.554L206.074 111.806L208.616 115.17H207.304ZM213.554 111.011L212.585 111.182C212.545 111.058 212.48 110.94 212.392 110.828C212.307 110.716 212.19 110.624 212.042 110.552C211.894 110.48 211.71 110.445 211.488 110.445C211.186 110.445 210.933 110.513 210.73 110.649C210.528 110.782 210.426 110.955 210.426 111.168C210.426 111.352 210.494 111.5 210.63 111.612C210.766 111.724 210.985 111.817 211.288 111.888L212.16 112.089C212.665 112.206 213.042 112.386 213.289 112.63C213.537 112.873 213.661 113.19 213.661 113.579C213.661 113.909 213.566 114.202 213.376 114.46C213.187 114.716 212.924 114.917 212.585 115.062C212.249 115.208 211.859 115.281 211.416 115.281C210.802 115.281 210.3 115.149 209.912 114.887C209.523 114.622 209.285 114.245 209.197 113.759L210.23 113.601C210.294 113.871 210.426 114.074 210.626 114.213C210.826 114.349 211.087 114.417 211.41 114.417C211.759 114.417 212.039 114.344 212.249 114.199C212.459 114.051 212.564 113.871 212.564 113.658C212.564 113.486 212.5 113.342 212.371 113.224C212.244 113.107 212.051 113.019 211.788 112.96L210.859 112.755C210.346 112.638 209.968 112.452 209.722 112.196C209.479 111.941 209.357 111.617 209.357 111.226C209.357 110.9 209.448 110.617 209.629 110.373C209.81 110.129 210.061 109.939 210.38 109.803C210.699 109.665 211.065 109.595 211.478 109.595C212.071 109.595 212.538 109.724 212.879 109.982C213.219 110.238 213.444 110.581 213.554 111.011ZM219.098 115.291C218.75 115.291 218.436 115.227 218.155 115.098C217.873 114.967 217.651 114.777 217.486 114.528C217.324 114.28 217.243 113.975 217.243 113.615C217.243 113.305 217.303 113.049 217.422 112.848C217.541 112.648 217.702 112.489 217.904 112.372C218.107 112.255 218.333 112.166 218.584 112.107C218.834 112.047 219.089 112.002 219.349 111.97C219.678 111.933 219.944 111.901 220.15 111.878C220.354 111.851 220.503 111.81 220.596 111.752C220.689 111.695 220.735 111.602 220.735 111.473V111.448C220.735 111.135 220.647 110.892 220.471 110.72C220.297 110.549 220.038 110.462 219.692 110.462C219.332 110.462 219.049 110.542 218.841 110.702C218.636 110.86 218.494 111.035 218.416 111.229L217.411 111C217.53 110.665 217.704 110.395 217.933 110.19C218.164 109.982 218.43 109.832 218.73 109.739C219.03 109.643 219.346 109.595 219.678 109.595C219.897 109.595 220.129 109.622 220.375 109.674C220.623 109.724 220.854 109.818 221.068 109.953C221.285 110.09 221.463 110.284 221.6 110.538C221.739 110.788 221.808 111.114 221.808 111.516V115.17H220.764V114.417H220.721C220.652 114.556 220.548 114.692 220.41 114.826C220.272 114.96 220.094 115.071 219.878 115.159C219.661 115.247 219.401 115.291 219.098 115.291ZM219.33 114.432C219.626 114.432 219.879 114.373 220.089 114.256C220.301 114.139 220.462 113.986 220.571 113.798C220.683 113.607 220.739 113.402 220.739 113.185V112.475C220.701 112.514 220.627 112.55 220.518 112.583C220.41 112.614 220.287 112.642 220.15 112.666C220.011 112.687 219.877 112.707 219.746 112.726C219.614 112.743 219.505 112.757 219.417 112.769C219.209 112.796 219.02 112.84 218.848 112.902C218.679 112.964 218.543 113.054 218.441 113.171C218.341 113.286 218.29 113.438 218.29 113.629C218.29 113.894 218.388 114.095 218.584 114.231C218.779 114.365 219.028 114.432 219.33 114.432ZM224.422 115.17L222.806 109.667H223.911L224.987 113.708H225.04L226.12 109.667H227.224L228.297 113.69H228.35L229.419 109.667H230.524L228.912 115.17H227.821L226.706 111.197H226.624L225.509 115.17H224.422ZM233.738 115.281C233.197 115.281 232.73 115.165 232.34 114.933C231.952 114.699 231.651 114.371 231.439 113.948C231.229 113.523 231.124 113.025 231.124 112.454C231.124 111.89 231.229 111.394 231.439 110.964C231.651 110.534 231.947 110.199 232.325 109.957C232.707 109.716 233.153 109.595 233.662 109.595C233.972 109.595 234.272 109.647 234.563 109.75C234.854 109.852 235.115 110.013 235.346 110.233C235.577 110.453 235.76 110.738 235.893 111.09C236.027 111.438 236.093 111.862 236.093 112.361V112.741H231.728V111.938H235.046C235.046 111.656 234.988 111.407 234.874 111.19C234.76 110.97 234.599 110.797 234.391 110.67C234.187 110.544 233.946 110.48 233.67 110.48C233.369 110.48 233.107 110.554 232.883 110.702C232.661 110.848 232.49 111.039 232.368 111.276C232.249 111.509 232.189 111.764 232.189 112.038V112.666C232.189 113.033 232.254 113.346 232.383 113.604C232.514 113.862 232.696 114.059 232.93 114.195C233.163 114.329 233.436 114.396 233.748 114.396C233.951 114.396 234.135 114.367 234.302 114.31C234.469 114.25 234.613 114.162 234.735 114.045C234.856 113.928 234.949 113.783 235.014 113.612L236.025 113.794C235.944 114.093 235.799 114.354 235.589 114.579C235.382 114.801 235.121 114.974 234.806 115.098C234.494 115.22 234.138 115.281 233.738 115.281ZM241.394 111.011L240.425 111.182C240.384 111.058 240.32 110.94 240.232 110.828C240.146 110.716 240.029 110.624 239.881 110.552C239.733 110.48 239.549 110.445 239.328 110.445C239.025 110.445 238.772 110.513 238.57 110.649C238.367 110.782 238.266 110.955 238.266 111.168C238.266 111.352 238.334 111.5 238.469 111.612C238.605 111.724 238.824 111.817 239.127 111.888L240 112.089C240.505 112.206 240.881 112.386 241.129 112.63C241.377 112.873 241.501 113.19 241.501 113.579C241.501 113.909 241.406 114.202 241.215 114.46C241.026 114.716 240.763 114.917 240.425 115.062C240.089 115.208 239.699 115.281 239.256 115.281C238.641 115.281 238.139 115.149 237.751 114.887C237.362 114.622 237.124 114.245 237.036 113.759L238.069 113.601C238.133 113.871 238.266 114.074 238.466 114.213C238.666 114.349 238.927 114.417 239.249 114.417C239.599 114.417 239.879 114.344 240.089 114.199C240.298 114.051 240.403 113.871 240.403 113.658C240.403 113.486 240.339 113.342 240.21 113.224C240.084 113.107 239.89 113.019 239.628 112.96L238.698 112.755C238.186 112.638 237.807 112.452 237.562 112.196C237.318 111.941 237.197 111.617 237.197 111.226C237.197 110.9 237.287 110.617 237.469 110.373C237.65 110.129 237.9 109.939 238.219 109.803C238.539 109.665 238.904 109.595 239.317 109.595C239.91 109.595 240.377 109.724 240.718 109.982C241.058 110.238 241.284 110.581 241.394 111.011ZM244.989 115.281C244.474 115.281 244.025 115.163 243.641 114.926C243.257 114.69 242.96 114.359 242.748 113.934C242.536 113.509 242.429 113.012 242.429 112.443C242.429 111.873 242.536 111.373 242.748 110.946C242.96 110.518 243.257 110.187 243.641 109.95C244.025 109.714 244.474 109.595 244.989 109.595C245.503 109.595 245.952 109.714 246.336 109.95C246.72 110.187 247.018 110.518 247.23 110.946C247.442 111.373 247.548 111.873 247.548 112.443C247.548 113.012 247.442 113.509 247.23 113.934C247.018 114.359 246.72 114.69 246.336 114.926C245.952 115.163 245.503 115.281 244.989 115.281ZM244.992 114.381C245.326 114.381 245.603 114.293 245.822 114.117C246.041 113.939 246.203 113.704 246.308 113.41C246.415 113.117 246.468 112.793 246.468 112.44C246.468 112.089 246.415 111.766 246.308 111.473C246.203 111.177 246.041 110.939 245.822 110.76C245.603 110.581 245.326 110.491 244.992 110.491C244.656 110.491 244.378 110.581 244.156 110.76C243.937 110.939 243.773 111.177 243.666 111.473C243.561 111.766 243.509 112.089 243.509 112.44C243.509 112.793 243.561 113.117 243.666 113.41C243.773 113.704 243.937 113.939 244.156 114.117C244.378 114.293 244.656 114.381 244.992 114.381ZM248.741 115.17V109.667H249.767V110.562H249.835C249.949 110.259 250.136 110.023 250.396 109.853C250.656 109.682 250.967 109.595 251.329 109.595C251.696 109.595 252.003 109.682 252.251 109.853C252.502 110.025 252.686 110.262 252.806 110.562H252.863C252.994 110.269 253.203 110.035 253.488 109.861C253.775 109.683 254.115 109.595 254.511 109.595C255.009 109.595 255.415 109.752 255.73 110.065C256.046 110.378 256.205 110.849 256.205 111.48V115.17H255.136V111.58C255.136 111.207 255.035 110.938 254.832 110.77C254.63 110.603 254.388 110.52 254.107 110.52C253.759 110.52 253.488 110.627 253.295 110.842C253.102 111.055 253.006 111.328 253.006 111.663V115.17H251.941V111.512C251.941 111.214 251.847 110.974 251.662 110.792C251.476 110.61 251.234 110.52 250.936 110.52C250.733 110.52 250.546 110.573 250.375 110.681C250.205 110.786 250.068 110.933 249.964 111.122C249.861 111.31 249.81 111.529 249.81 111.777V115.17H248.741ZM260.004 115.281C259.463 115.281 258.997 115.165 258.606 114.933C258.218 114.699 257.917 114.371 257.705 113.948C257.496 113.523 257.391 113.025 257.391 112.454C257.391 111.89 257.496 111.394 257.705 110.964C257.917 110.534 258.213 110.199 258.592 109.957C258.973 109.716 259.419 109.595 259.929 109.595C260.239 109.595 260.539 109.647 260.83 109.75C261.12 109.852 261.381 110.013 261.612 110.233C261.844 110.453 262.026 110.738 262.16 111.09C262.293 111.438 262.36 111.862 262.36 112.361V112.741H257.995V111.938H261.312C261.312 111.656 261.255 111.407 261.14 111.19C261.027 110.97 260.866 110.797 260.658 110.67C260.453 110.544 260.213 110.48 259.936 110.48C259.636 110.48 259.374 110.554 259.15 110.702C258.928 110.848 258.757 111.039 258.635 111.276C258.516 111.509 258.456 111.764 258.456 112.038V112.666C258.456 113.033 258.521 113.346 258.649 113.604C258.781 113.862 258.962 114.059 259.196 114.195C259.43 114.329 259.702 114.396 260.015 114.396C260.218 114.396 260.402 114.367 260.569 114.31C260.735 114.25 260.88 114.162 261.001 114.045C261.123 113.928 261.216 113.783 261.28 113.612L262.292 113.794C262.211 114.093 262.065 114.354 261.856 114.579C261.648 114.801 261.387 114.974 261.073 115.098C260.76 115.22 260.404 115.281 260.004 115.281Z" fill="white"/>
<path d="M156.492 99.4072H263.446C270.048 99.4072 275.4 104.771 275.4 111.387C275.4 118.004 270.048 123.367 263.446 123.367H170.333C162.342 123.367 155.863 116.875 155.863 108.865V100.038C155.863 99.6897 156.145 99.4072 156.492 99.4072Z" stroke="#039855" stroke-width="2"/>
</g>
</g>
<defs>
<filter id="filter0_d_338_223026" x="144.751" y="86.7607" width="15.041" height="16.2773" filterUnits="userSpaceOnUse" color-interpolation-filters="sRGB">
<feFlood flood-opacity="0" result="BackgroundImageFix"/>
<feColorMatrix in="SourceAlpha" type="matrix" values="0 0 0 0 0 0 0 0 0 0 0 0 0 0 0 0 0 0 127 0" result="hardAlpha"/>
<feOffset dy="1"/>
<feGaussianBlur stdDeviation="1"/>
<feComposite in2="hardAlpha" operator="out"/>
<feColorMatrix type="matrix" values="0 0 0 0 0 0 0 0 0 0 0 0 0 0 0 0 0 0 0.25 0"/>
<feBlend mode="normal" in2="BackgroundImageFix" result="effect1_dropShadow_338_223026"/>
<feBlend mode="normal" in="SourceGraphic" in2="effect1_dropShadow_338_223026" result="shape"/>
</filter>
<filter id="filter1_d_338_223026" x="148.863" y="92.4072" width="141.536" height="45.96" filterUnits="userSpaceOnUse" color-interpolation-filters="sRGB">
<feFlood flood-opacity="0" result="BackgroundImageFix"/>
<feColorMatrix in="SourceAlpha" type="matrix" values="0 0 0 0 0 0 0 0 0 0 0 0 0 0 0 0 0 0 127 0" result="hardAlpha"/>
<feOffset dx="4" dy="4"/>
<feGaussianBlur stdDeviation="5"/>
<feComposite in2="hardAlpha" operator="out"/>
<feColorMatrix type="matrix" values="0 0 0 0 0.0705882 0 0 0 0 0.717647 0 0 0 0 0.415686 0 0 0 0.16 0"/>
<feBlend mode="normal" in2="BackgroundImageFix" result="effect1_dropShadow_338_223026"/>
<feBlend mode="normal" in="SourceGraphic" in2="effect1_dropShadow_338_223026" result="shape"/>
</filter>
<clipPath id="clip0_338_223026">
<rect width="285" height="157" fill="white"/>
</clipPath>
</defs>
</svg>
