<svg width="94" height="70" viewBox="0 0 94 70" fill="none" xmlns="http://www.w3.org/2000/svg">
<g clip-path="url(#clip0_343_227837)">
<g filter="url(#filter0_d_343_227837)">
<path d="M50.7379 31.1768C48.8612 31.1547 47.3452 29.6388 47.3232 27.7621L47.0554 5.00356C47.019 1.90548 50.7635 0.328576 52.9543 2.5194L75.9805 25.5456C78.1714 27.7365 76.5945 31.481 73.4964 31.4446L50.7379 31.1768Z" fill="#FD2B2B"/>
<path d="M39.6768 42.238C39.6547 40.3613 38.1388 38.8453 36.2621 38.8232L13.5036 38.5555C10.4055 38.519 8.82861 42.2636 11.0194 44.4544L34.0457 67.4806C36.2365 69.6714 39.981 68.0945 39.9446 64.9965L39.6768 42.238Z" fill="#FF7F09"/>
<path d="M36.262 31.1768C38.1387 31.1547 39.6547 29.6387 39.6768 27.762L39.9445 5.00354C39.981 1.90546 36.2364 0.328558 34.0456 2.51938L11.0194 25.5456C8.82856 27.7364 10.4055 31.481 13.5035 31.4445L36.262 31.1768Z" fill="#095CFF"/>
<path d="M47.3232 42.238C47.3453 40.3613 48.8613 38.8453 50.738 38.8232L73.4965 38.5555C76.5945 38.519 78.1714 42.2636 75.9806 44.4544L52.9544 67.4806C50.7636 69.6714 47.019 68.0945 47.0555 64.9965L47.3232 42.238Z" fill="#47A850"/>
<path d="M51.9599 35.5756C51.9599 40.3469 48.092 44.2148 43.3208 44.2148C38.5495 44.2148 34.6816 40.3469 34.6816 35.5756C34.6816 30.8044 38.5495 26.9365 43.3208 26.9365C48.092 26.9365 51.9599 30.8044 51.9599 35.5756Z" fill="#0C41FF"/>
<path fill-rule="evenodd" clip-rule="evenodd" d="M56.5675 35.5758C56.5675 42.8917 50.6368 48.8224 43.3209 48.8224C36.0049 48.8224 30.0742 42.8917 30.0742 35.5758C30.0742 28.2598 36.0049 22.3291 43.3209 22.3291C50.6368 22.3291 56.5675 28.2598 56.5675 35.5758ZM43.3209 44.2149C48.0921 44.2149 51.96 40.347 51.96 35.5758C51.96 30.8045 48.0921 26.9366 43.3209 26.9366C38.5496 26.9366 34.6817 30.8045 34.6817 35.5758C34.6817 40.347 38.5496 44.2149 43.3209 44.2149Z" fill="white"/>
</g>
<g opacity="0.1">
<path d="M106.426 80.6062C104.241 80.5808 102.477 78.8386 102.451 76.6818L102.139 50.5265C102.097 46.966 106.456 45.1537 109.007 47.6715L135.813 74.1345C138.364 76.6523 136.528 80.9558 132.921 80.9139L106.426 80.6062Z" fill="#888888"/>
<path d="M93.5491 93.3183C93.5234 91.1615 91.7586 89.4192 89.5738 89.3938L63.0788 89.0861C59.4721 89.0442 57.6363 93.3477 60.1868 95.8655L86.9934 122.328C89.544 124.846 93.9033 123.034 93.8608 119.474L93.5491 93.3183Z" fill="#FF7F09"/>
<path d="M89.5737 80.6062C91.7585 80.5808 93.5234 78.8385 93.5491 76.6817L93.8608 50.5265C93.9032 46.966 89.5439 45.1537 86.9934 47.6715L60.1867 74.1345C57.6362 76.6523 59.472 80.9558 63.0787 80.9139L89.5737 80.6062Z" fill="#9E9E9E"/>
<path d="M102.451 93.3183C102.477 91.1615 104.241 89.4192 106.426 89.3938L132.921 89.0861C136.528 89.0442 138.364 93.3477 135.813 95.8655L109.007 122.328C106.456 124.846 102.097 123.034 102.139 119.474L102.451 93.3183Z" fill="#C5C5C5"/>
</g>
<g opacity="0.3">
<path d="M105.954 -12.9373C104.021 -12.96 102.46 -14.5213 102.437 -16.454L102.162 -39.8919C102.124 -43.0824 105.98 -44.7064 108.237 -42.4502L131.95 -18.7366C134.206 -16.4804 132.582 -12.624 129.392 -12.6616L105.954 -12.9373Z" fill="#888888"/>
<path d="M94.5627 -1.54598C94.54 -3.4787 92.9787 -5.03993 91.046 -5.06267L67.6082 -5.33841C64.4176 -5.37594 62.7936 -1.51962 65.0499 0.7366L88.7634 24.4502C91.0197 26.7064 94.876 25.0824 94.8384 21.8919L94.5627 -1.54598Z" fill="#848484"/>
<path d="M91.046 -12.9373C92.9787 -12.9601 94.5399 -14.5213 94.5627 -16.454L94.8384 -39.8919C94.8759 -43.0824 91.0196 -44.7064 88.7634 -42.4502L65.0498 -18.7366C62.7936 -16.4804 64.4176 -12.6241 67.6081 -12.6616L91.046 -12.9373Z" fill="#9E9E9E"/>
<path d="M102.437 -1.54598C102.46 -3.4787 104.021 -5.03993 105.954 -5.06267L129.392 -5.33841C132.582 -5.37595 134.206 -1.51963 131.95 0.736595L108.237 24.4502C105.98 26.7064 102.124 25.0824 102.162 21.8919L102.437 -1.54598Z" fill="#C5C5C5"/>
<path fill-rule="evenodd" clip-rule="evenodd" d="M111.958 -8.40675C111.958 -0.87244 105.85 5.23533 98.3159 5.23533C90.7816 5.23533 84.6738 -0.87244 84.6738 -8.40675C84.6738 -15.9411 90.7816 -22.0488 98.3159 -22.0488C105.85 -22.0488 111.958 -15.9411 111.958 -8.40675ZM98.3159 0.490256C103.23 0.490256 107.213 -3.49307 107.213 -8.40675C107.213 -13.3204 103.23 -17.3038 98.3159 -17.3038C93.4022 -17.3038 89.4189 -13.3204 89.4189 -8.40675C89.4189 -3.49307 93.4022 0.490256 98.3159 0.490256Z" fill="#F3F6F9"/>
</g>
</g>
<defs>
<filter id="filter0_d_343_227837" x="6" y="1.5" width="75" height="75" filterUnits="userSpaceOnUse" color-interpolation-filters="sRGB">
<feFlood flood-opacity="0" result="BackgroundImageFix"/>
<feColorMatrix in="SourceAlpha" type="matrix" values="0 0 0 0 0 0 0 0 0 0 0 0 0 0 0 0 0 0 127 0" result="hardAlpha"/>
<feOffset dy="4"/>
<feGaussianBlur stdDeviation="2"/>
<feComposite in2="hardAlpha" operator="out"/>
<feColorMatrix type="matrix" values="0 0 0 0 0 0 0 0 0 0 0 0 0 0 0 0 0 0 0.1 0"/>
<feBlend mode="normal" in2="BackgroundImageFix" result="effect1_dropShadow_343_227837"/>
<feBlend mode="normal" in="SourceGraphic" in2="effect1_dropShadow_343_227837" result="shape"/>
</filter>
<clipPath id="clip0_343_227837">
<rect width="94" height="69" fill="white" transform="translate(0 0.5)"/>
</clipPath>
</defs>
</svg>
